<?xml version="1.0" encoding="UTF-8"?><!DOCTYPE svg PUBLIC "-//W3C//DTD SVG 1.1//EN" "http://www.w3.org/Graphics/SVG/1.1/DTD/svg11.dtd"><svg xmlns="http://www.w3.org/2000/svg"><symbol id="collaboration" viewBox="0 0 78 72"><path d="M49.7 15.702c10.102 4.28 17.258 14.593 17.258 26.662v.987L49.7 15.702zm-20.627 0c-10.102 4.28-17.258 14.593-17.258 26.662v.987l17.258-27.649zm-9.26 46.85C24.759 67.818 31.704 71 39.386 71c7.472 0 14.313-3.182 19.259-8.229l-38.832-.22zM39.386 1c-5.682 0-10.313 4.828-10.313 10.752 0 5.925 4.63 10.753 10.313 10.753 5.683 0 10.314-4.828 10.314-10.753C49.7 5.828 45.07 1 39.386 1zm0 5.596c-1.578 0-2.84 1.316-2.84 2.962 0 1.646 1.262 2.962 2.84 2.962 1.579 0 2.842-1.316 2.842-2.962 0-1.646-1.263-2.962-2.842-2.962zm4.315 10.423c0-2.524-1.894-4.499-4.315-4.499-2.42 0-4.314 1.975-4.314 4.499h8.63zm23.257 27.1c-5.682 0-10.313 4.828-10.313 10.752 0 5.925 4.63 10.753 10.313 10.753 5.683 0 10.313-4.828 10.313-10.753 0-5.924-4.63-10.752-10.313-10.752zm0 5.486c-1.578 0-2.841 1.317-2.841 2.962 0 1.646 1.263 2.963 2.841 2.963 1.579 0 2.842-1.317 2.842-2.963 0-1.645-1.263-2.962-2.842-2.962zm4.315 10.533c0-2.524-1.894-4.499-4.315-4.499-2.42 0-4.314 1.975-4.314 4.499h8.629zM11.815 44.119C6.132 44.12 1.5 48.947 1.5 54.871c0 5.925 4.63 10.753 10.314 10.753 5.682 0 10.313-4.828 10.313-10.753 0-5.924-4.63-10.752-10.313-10.752zm0 5.486c-1.579 0-2.842 1.317-2.842 2.962 0 1.646 1.263 2.963 2.842 2.963 1.578 0 2.841-1.317 2.841-2.963 0-1.645-1.263-2.962-2.841-2.962zm4.314 10.533c0-2.524-1.894-4.499-4.314-4.499S7.5 57.614 7.5 60.138h8.63z" stroke="#4A4A4A" stroke-width="1.2" fill="none" fill-rule="evenodd" stroke-linecap="round" stroke-linejoin="round"/></symbol><symbol id="communication" viewBox="0 0 85 80"><path d="M42.008 0C18.915 0 0 15.28 0 34.413 0 45.235 6.399 54.1 15.784 60.324L8.095 78.61a1 1 0 0 0 1.376 1.282l21.754-11.846c3.122.547 7.64.812 10.783.812 23.094 0 42.009-15.31 42.009-34.444C84.017 15.28 65.102 0 42.008 0zm0 2c22.213 0 40.008 14.605 40.008 32.413 0 17.808-17.795 32.444-40.008 32.444-3.142 0-7.954-.303-10.814-.844a1 1 0 0 0-.657.094L11.033 76.765l6.877-16.378a1 1 0 0 0-.375-1.219C8.13 53.17 2 44.721 2 34.413 2 16.605 19.796 2 42.008 2zM19.004 28.006c-3.303 0-6.001 2.698-6.001 6 0 3.303 2.698 6.002 6 6.002 3.303 0 6.002-2.699 6.002-6.001 0-3.303-2.699-6.001-6.001-6.001zm23.004 0c-3.302 0-6 2.698-6 6 0 3.303 2.698 6.002 6 6.002 3.303 0 6.002-2.699 6.002-6.001 0-3.303-2.7-6.001-6.002-6.001zm23.005 0c-3.302 0-6.001 2.698-6.001 6 0 3.303 2.699 6.002 6.001 6.002 3.302 0 6.001-2.699 6.001-6.001 0-3.303-2.699-6.001-6.001-6.001zm-46.01 2c2.222 0 4.002 1.78 4.002 4 0 2.222-1.78 4.002-4.001 4.002-2.222 0-4.001-1.78-4.001-4.001 0-2.222 1.78-4.001 4-4.001zm23.005 0c2.222 0 4.001 1.78 4.001 4 0 2.222-1.78 4.002-4 4.002-2.222 0-4.001-1.78-4.001-4.001 0-2.222 1.779-4.001 4-4.001zm23.005 0c2.221 0 4 1.78 4 4 0 2.222-1.779 4.002-4 4.002s-4-1.78-4-4.001c0-2.222 1.779-4.001 4-4.001z" fill-rule="nonzero" fill="#4A4A4A"/></symbol><symbol id="design" viewBox="0 0 100 50"><path d="M90.695 0c-4.6 0-8.384 3.496-9.1 8.05H58.59V0H40.184v8.05H18.303c-.716-4.554-4.5-8.05-9.1-8.05C4.09 0 0 4.237 0 9.534c0 5.297 4.09 9.534 9.202 9.534 4.908 0 8.896-3.92 9.203-8.899h21.677v.954l-.205.106C23.722 15.996 12.474 31.568 12.474 48.94V50h2.045v-1.06c0-16.313 10.532-30.932 25.665-35.593v5.72h18.405V13.03c15.644 4.343 26.687 19.067 26.687 35.91V50h2.045v-1.06c-.102-17.902-11.759-33.474-28.425-38.029l-.307-.106v-.636h23.006c.307 4.98 4.295 8.899 9.203 8.899 5.112 0 9.202-4.237 9.202-9.534C100 4.237 95.808 0 90.695 0zM9.305 16.95c-3.988 0-7.158-3.285-7.158-7.416s3.17-7.415 7.158-7.415c3.987 0 7.157 3.284 7.157 7.415s-3.272 7.415-7.157 7.415zm47.239 0H42.229V2.118h14.315v14.83zm34.151 0c-3.987 0-7.157-3.285-7.157-7.416s3.17-7.415 7.157-7.415c3.988 0 7.158 3.284 7.158 7.415s-3.17 7.415-7.158 7.415z" fill-rule="nonzero" fill="#4A4A4A"/></symbol><symbol id="development" viewBox="0 0 95 50"><path d="M25.34 7.712L.765 24.372 25.34 41.034l2.692-1.548L5.739 24.373 28.03 9.26l-2.69-1.548zm44.76 0L67.408 9.26l22.293 15.113-22.293 15.112 2.692 1.548 24.575-16.66L70.1 7.712zM33.232 48.527l3.402 1.012L62.247 1.034 58.845.022 33.232 48.527z" fill-rule="nonzero" fill="#4A4A4A"/></symbol><symbol id="documentation" viewBox="0 0 50 60"><g fill-rule="nonzero" fill="#4A4A4A"><path d="M49.287 59.96H1.25c-.378 0-.677-.257-.677-.582V.635c0-.324.299-.58.677-.58h37.793v1.161H1.928v57.568h46.666V9.419h1.371v49.96c.016.31-.3.58-.678.58z"/><path d="M49.287 10H39.043c-.378 0-.678-.257-.678-.581V.635c0-.243.174-.446.426-.54a.762.762 0 0 1 .74.121L49.777 9c.189.162.252.419.142.635-.095.23-.347.365-.63.365zm-9.55-1.176h7.896l-7.896-6.77v6.77zM10.785 29.419h28.952v1.176H10.785zM10.785 34.851h28.952v1.176H10.785zM10.785 40.284h28.952v1.176H10.785zM10.785 23.973h28.952v1.176H10.785zM10.785 18.541h28.952v1.176H10.785z"/></g></symbol><symbol id="felipenobre" viewBox="0 0 390 60"><g fill="#D04058" fill-rule="evenodd"><path d="M.068 4.986h24.37c.023 0 .035.023.035.069v1.093c0 .046-.012.069-.035.069H1.23v22.046h23.208c.023.022.035.045.035.068v1.128c0 .046-.012.068-.035.068H1.23v24.405c0 .045-.022.068-.068.068H.068C.023 54 0 53.977 0 53.932V5.055c0-.046.023-.069.068-.069zm36.212.137H60.58c.046 0 .069.023.069.068v1.094c0 .046-.023.069-.069.069h-23.14V28.33H48.38c.046.023.069.046.069.068v1.128c0 .023-.023.035-.069.035H37.442V52.77h23.14c.045 0 .068.022.068.068v1.094c0 .045-.023.068-.069.068H36.28c-.046 0-.069-.023-.069-.068V5.192c0-.046.023-.069.069-.069zm36.211.103h1.094c.045 0 .068.022.068.068v47.441h23.14c.045 0 .068.023.068.069v1.093c0 .046-.023.069-.068.069H75.465c-.73 0-1.732.011-3.008.034l-.034-.068V5.294c0-.046.022-.068.068-.068zm36.211-.103h1.094c.046 0 .068.023.068.068v48.74c0 .046-.022.069-.068.069h-1.094c-.045 0-.068-.023-.068-.068V5.192c0-.046.023-.069.068-.069zm14.097 0h16.51c2.278 0 4.249.934 5.912 2.803 1.3 1.55 1.949 3.35 1.949 5.4v9.195c0 1.458-.582 2.973-1.744 4.545-1.709 2.028-3.862 3.042-6.46 3.042h-15.004v23.824c0 .045-.023.068-.069.068H122.8c-.045 0-.068-.023-.068-.068V5.192c0-.046.023-.069.068-.069zm1.163 1.23v22.525h15.244c.022 0 .034.011.034.034 1.094-.114 1.948-.296 2.563-.547 1.595-.729 2.746-1.823 3.452-3.281a6.91 6.91 0 0 0 .65-2.94V13.19c0-2.643-1.253-4.682-3.76-6.118-.98-.478-1.97-.717-2.974-.717h-15.21zm34.878-1.23h24.302c.045 0 .068.023.068.068v1.094c0 .046-.023.069-.068.069h-23.14V28.33h10.937c.046.023.069.046.069.068v1.128c0 .023-.023.035-.069.035h-10.937V52.77h23.14c.045 0 .068.022.068.068v1.094c0 .045-.023.068-.068.068H158.84c-.046 0-.069-.023-.069-.068V5.192c0-.046.023-.069.069-.069zm58.682-2.53h.069l12.578 26.66c.205.365 3.623 7.589 10.254 21.67.114.16.17.286.17.377h.035V5.328c.023-.045.045-.068.068-.068h1.196c.046 0 .069.023.069.068v51.543h-.069c-10.117-21.465-15.78-33.462-16.987-35.991l-6.118-12.954h-.034v46.177c0 .045-.023.068-.069.068h-1.093c-.046 0-.069-.023-.069-.068V2.593zm43.526 2.496c.684.023 1.185.034 1.504.034h6.768c.387 0 .877-.011 1.47-.034 1.275.16 2.255.421 2.939.786 1.96 1.048 3.292 2.575 3.999 4.58.296.798.444 1.64.444 2.53v33.12c0 2.757-1.276 5.013-3.828 6.767C273 53.624 271.655 54 270.31 54h-8.75c-2.53 0-4.671-1.128-6.426-3.384-.934-1.458-1.401-2.962-1.401-4.512v-33.12c0-2.757 1.253-5.001 3.76-6.733 1.367-.752 2.551-1.128 3.554-1.128v-.034zm-6.084 7.964v32.983c0 1.823.66 3.407 1.982 4.751 1.322 1.322 2.929 1.983 4.82 1.983h8.374c1.846 0 3.44-.65 4.785-1.949 1.322-1.344 1.982-2.94 1.982-4.785V13.053c0-2.302-1.002-4.182-3.007-5.64-1.117-.73-2.37-1.094-3.76-1.094h-8.374c-1.869 0-3.464.65-4.785 1.949-1.345 1.344-2.017 2.939-2.017 4.785zm35.05-7.93h16.508c2.279 0 4.25.934 5.913 2.803 1.299 1.55 1.948 3.35 1.948 5.4v9.195c0 1.39-.535 2.86-1.606 4.409-.912 1.025-1.63 1.663-2.153 1.914-.251.182-.65.399-1.197.65v.033c1.823.752 3.213 2.063 4.17 3.931.524 1.185.786 2.199.786 3.042v9.263c0 2.848-1.196 5.15-3.588 6.904-1.345.889-2.769 1.333-4.273 1.333h-16.509c-.045 0-.068-.023-.068-.068V5.192c0-.046.023-.069.068-.069zm1.161 1.23v22.525h14.937c3.076 0 5.264-1.413 6.562-4.238.297-.82.445-1.652.445-2.495v-8.956c0-2.643-1.253-4.682-3.76-6.118-.98-.478-1.971-.717-2.974-.717h-15.21zm0 23.755V52.77h15.074c2.529 0 4.523-1.14 5.981-3.418a6.954 6.954 0 0 0 .889-3.418V36.91c0-2.392-1.037-4.318-3.11-5.776a6.873 6.873 0 0 0-3.658-1.026h-15.176zm35.05-24.985h16.508c2.552 0 4.717 1.15 6.495 3.452.911 1.436 1.367 2.905 1.367 4.41v9.33c0 2.644-1.185 4.82-3.555 6.529-1.299.911-2.905 1.367-4.82 1.367h-6.972l15.313 23.72V54h-1.402c-.478-.66-5.309-8.146-14.492-22.456-.592-.889-.9-1.333-.923-1.333h-6.357v23.72c0 .046-.023.069-.069.069h-1.093c-.046 0-.069-.023-.069-.068V5.192c0-.046.023-.069.069-.069zm1.162 1.23v22.56h15.176c2.21 0 4.055-.97 5.537-2.906.82-1.208 1.23-2.438 1.23-3.692a.38.38 0 0 1 .171-.034v-.034c-.114 0-.17-.023-.17-.068v-8.58c0-2.141-.57-3.805-1.71-4.99-.592-.638-1.173-1.116-1.743-1.435-1.117-.547-2.188-.82-3.213-.82-.046 0-.068.01-.068.034l-.342-.034h-14.868zm35.049-1.23h24.302c.045 0 .068.023.068.068v1.094c0 .046-.023.069-.068.069h-23.14V28.33h10.938c.045.023.068.046.068.068v1.128c0 .023-.023.035-.068.035h-10.938V52.77h23.14c.045 0 .068.022.068.068v1.094c0 .045-.023.068-.068.068h-24.302c-.046 0-.068-.023-.068-.068V5.192c0-.046.022-.069.068-.069z"/><path d="M.068 7.986h24.37c.023 0 .035.023.035.069v1.093c0 .046-.012.069-.035.069H1.23v22.046h23.208c.023.022.035.045.035.068v1.128c0 .046-.012.068-.035.068H1.23v24.405c0 .045-.022.068-.068.068H.068C.023 57 0 56.977 0 56.932V8.055c0-.046.023-.069.068-.069zm36.212.137H60.58c.046 0 .069.023.069.068v1.094c0 .046-.023.069-.069.069h-23.14V31.33H48.38c.046.023.069.046.069.068v1.128c0 .023-.023.035-.069.035H37.442V55.77h23.14c.045 0 .068.022.068.068v1.094c0 .045-.023.068-.069.068H36.28c-.046 0-.069-.023-.069-.068V8.192c0-.046.023-.069.069-.069zm36.211.103h1.094c.045 0 .068.022.068.068v47.441h23.14c.045 0 .068.023.068.069v1.093c0 .046-.023.069-.068.069H75.465c-.73 0-1.732.011-3.008.034l-.034-.068V8.294c0-.046.022-.068.068-.068zm36.211-.103h1.094c.046 0 .068.023.068.068v48.74c0 .046-.022.069-.068.069h-1.094c-.045 0-.068-.023-.068-.068V8.192c0-.046.023-.069.068-.069zm14.097 0h16.51c2.278 0 4.249.934 5.912 2.803 1.3 1.55 1.949 3.35 1.949 5.4v9.195c0 1.458-.582 2.973-1.744 4.545-1.709 2.028-3.862 3.042-6.46 3.042h-15.004v23.824c0 .045-.023.068-.069.068H122.8c-.045 0-.068-.023-.068-.068V8.192c0-.046.023-.069.068-.069zm1.163 1.23v22.525h15.244c.022 0 .034.011.034.034 1.094-.114 1.948-.296 2.563-.547 1.595-.729 2.746-1.823 3.452-3.281a6.91 6.91 0 0 0 .65-2.94V16.19c0-2.643-1.253-4.682-3.76-6.118-.98-.478-1.97-.717-2.974-.717h-15.21zm34.878-1.23h24.302c.045 0 .068.023.068.068v1.094c0 .046-.023.069-.068.069h-23.14V31.33h10.937c.046.023.069.046.069.068v1.128c0 .023-.023.035-.069.035h-10.937V55.77h23.14c.045 0 .068.022.068.068v1.094c0 .045-.023.068-.068.068H158.84c-.046 0-.069-.023-.069-.068V8.192c0-.046.023-.069.069-.069zm58.682-2.53h.069l12.578 26.66c.205.365 3.623 7.589 10.254 21.67.114.16.17.286.17.377h.035V8.328c.023-.045.045-.068.068-.068h1.196c.046 0 .069.023.069.068v51.543h-.069c-10.117-21.465-15.78-33.462-16.987-35.991l-6.118-12.954h-.034v46.177c0 .045-.023.068-.069.068h-1.093c-.046 0-.069-.023-.069-.068V5.593zm43.526 2.496c.684.023 1.185.034 1.504.034h6.768c.387 0 .877-.011 1.47-.034 1.275.16 2.255.421 2.939.786 1.96 1.048 3.292 2.575 3.999 4.58.296.798.444 1.64.444 2.53v33.12c0 2.757-1.276 5.013-3.828 6.767C273 56.624 271.655 57 270.31 57h-8.75c-2.53 0-4.671-1.128-6.426-3.384-.934-1.458-1.401-2.962-1.401-4.512v-33.12c0-2.757 1.253-5.001 3.76-6.733 1.367-.752 2.551-1.128 3.554-1.128v-.034zm-6.084 7.964v32.983c0 1.823.66 3.407 1.982 4.751 1.322 1.322 2.929 1.983 4.82 1.983h8.374c1.846 0 3.44-.65 4.785-1.949 1.322-1.344 1.982-2.94 1.982-4.785V16.053c0-2.302-1.002-4.182-3.007-5.64-1.117-.73-2.37-1.094-3.76-1.094h-8.374c-1.869 0-3.464.65-4.785 1.949-1.345 1.344-2.017 2.939-2.017 4.785zm35.05-7.93h16.508c2.279 0 4.25.934 5.913 2.803 1.299 1.55 1.948 3.35 1.948 5.4v9.195c0 1.39-.535 2.86-1.606 4.409-.912 1.025-1.63 1.663-2.153 1.914-.251.182-.65.399-1.197.65v.033c1.823.752 3.213 2.063 4.17 3.931.524 1.185.786 2.199.786 3.042v9.263c0 2.848-1.196 5.15-3.588 6.904-1.345.889-2.769 1.333-4.273 1.333h-16.509c-.045 0-.068-.023-.068-.068V8.192c0-.046.023-.069.068-.069zm1.161 1.23v22.525h14.937c3.076 0 5.264-1.413 6.562-4.238.297-.82.445-1.652.445-2.495v-8.956c0-2.643-1.253-4.682-3.76-6.118-.98-.478-1.971-.717-2.974-.717h-15.21zm0 23.755V55.77h15.074c2.529 0 4.523-1.14 5.981-3.418a6.954 6.954 0 0 0 .889-3.418V39.91c0-2.392-1.037-4.318-3.11-5.776a6.873 6.873 0 0 0-3.658-1.026h-15.176zm35.05-24.985h16.508c2.552 0 4.717 1.15 6.495 3.452.911 1.436 1.367 2.905 1.367 4.41v9.33c0 2.644-1.185 4.82-3.555 6.529-1.299.911-2.905 1.367-4.82 1.367h-6.972l15.313 23.72V57h-1.402c-.478-.66-5.309-8.146-14.492-22.456-.592-.889-.9-1.333-.923-1.333h-6.357v23.72c0 .046-.023.069-.069.069h-1.093c-.046 0-.069-.023-.069-.068V8.192c0-.046.023-.069.069-.069zm1.162 1.23v22.56h15.176c2.21 0 4.055-.97 5.537-2.906.82-1.208 1.23-2.438 1.23-3.692a.38.38 0 0 1 .171-.034v-.034c-.114 0-.17-.023-.17-.068v-8.58c0-2.141-.57-3.805-1.71-4.99-.592-.638-1.173-1.116-1.743-1.435-1.117-.547-2.188-.82-3.213-.82-.046 0-.068.01-.068.034l-.342-.034h-14.868zm35.049-1.23h24.302c.045 0 .068.023.068.068v1.094c0 .046-.023.069-.068.069h-23.14V31.33h10.938c.045.023.068.046.068.068v1.128c0 .023-.023.035-.068.035h-10.938V55.77h23.14c.045 0 .068.022.068.068v1.094c0 .045-.023.068-.068.068h-24.302c-.046 0-.068-.023-.068-.068V8.192c0-.046.022-.069.068-.069z"/><path d="M.068 6.986h24.37c.023 0 .035.023.035.069v1.093c0 .046-.012.069-.035.069H1.23v22.046h23.208c.023.022.035.045.035.068v1.128c0 .046-.012.068-.035.068H1.23v24.405c0 .045-.022.068-.068.068H.068C.023 56 0 55.977 0 55.932V7.055c0-.046.023-.069.068-.069zm36.212.137H60.58c.046 0 .069.023.069.068v1.094c0 .046-.023.069-.069.069h-23.14V30.33H48.38c.046.023.069.046.069.068v1.128c0 .023-.023.035-.069.035H37.442V54.77h23.14c.045 0 .068.022.068.068v1.094c0 .045-.023.068-.069.068H36.28c-.046 0-.069-.023-.069-.068V7.192c0-.046.023-.069.069-.069zm36.211.103h1.094c.045 0 .068.022.068.068v47.441h23.14c.045 0 .068.023.068.069v1.093c0 .046-.023.069-.068.069H75.465c-.73 0-1.732.011-3.008.034l-.034-.068V7.294c0-.046.022-.068.068-.068zm36.211-.103h1.094c.046 0 .068.023.068.068v48.74c0 .046-.022.069-.068.069h-1.094c-.045 0-.068-.023-.068-.068V7.192c0-.046.023-.069.068-.069zm14.097 0h16.51c2.278 0 4.249.934 5.912 2.803 1.3 1.55 1.949 3.35 1.949 5.4v9.195c0 1.458-.582 2.973-1.744 4.545-1.709 2.028-3.862 3.042-6.46 3.042h-15.004v23.824c0 .045-.023.068-.069.068H122.8c-.045 0-.068-.023-.068-.068V7.192c0-.046.023-.069.068-.069zm1.163 1.23v22.525h15.244c.022 0 .034.011.034.034 1.094-.114 1.948-.296 2.563-.547 1.595-.729 2.746-1.823 3.452-3.281a6.91 6.91 0 0 0 .65-2.94V15.19c0-2.643-1.253-4.682-3.76-6.118-.98-.478-1.97-.717-2.974-.717h-15.21zm34.878-1.23h24.302c.045 0 .068.023.068.068v1.094c0 .046-.023.069-.068.069h-23.14V30.33h10.937c.046.023.069.046.069.068v1.128c0 .023-.023.035-.069.035h-10.937V54.77h23.14c.045 0 .068.022.068.068v1.094c0 .045-.023.068-.068.068H158.84c-.046 0-.069-.023-.069-.068V7.192c0-.046.023-.069.069-.069zm58.682-2.53h.069l12.578 26.66c.205.365 3.623 7.589 10.254 21.67.114.16.17.286.17.377h.035V7.328c.023-.045.045-.068.068-.068h1.196c.046 0 .069.023.069.068v51.543h-.069c-10.117-21.465-15.78-33.462-16.987-35.991l-6.118-12.954h-.034v46.177c0 .045-.023.068-.069.068h-1.093c-.046 0-.069-.023-.069-.068V4.593zm43.526 2.496c.684.023 1.185.034 1.504.034h6.768c.387 0 .877-.011 1.47-.034 1.275.16 2.255.421 2.939.786 1.96 1.048 3.292 2.575 3.999 4.58.296.798.444 1.64.444 2.53v33.12c0 2.757-1.276 5.013-3.828 6.767C273 55.624 271.655 56 270.31 56h-8.75c-2.53 0-4.671-1.128-6.426-3.384-.934-1.458-1.401-2.962-1.401-4.512v-33.12c0-2.757 1.253-5.001 3.76-6.733 1.367-.752 2.551-1.128 3.554-1.128v-.034zm-6.084 7.964v32.983c0 1.823.66 3.407 1.982 4.751 1.322 1.322 2.929 1.983 4.82 1.983h8.374c1.846 0 3.44-.65 4.785-1.949 1.322-1.344 1.982-2.94 1.982-4.785V15.053c0-2.302-1.002-4.182-3.007-5.64-1.117-.73-2.37-1.094-3.76-1.094h-8.374c-1.869 0-3.464.65-4.785 1.949-1.345 1.344-2.017 2.939-2.017 4.785zm35.05-7.93h16.508c2.279 0 4.25.934 5.913 2.803 1.299 1.55 1.948 3.35 1.948 5.4v9.195c0 1.39-.535 2.86-1.606 4.409-.912 1.025-1.63 1.663-2.153 1.914-.251.182-.65.399-1.197.65v.033c1.823.752 3.213 2.063 4.17 3.931.524 1.185.786 2.199.786 3.042v9.263c0 2.848-1.196 5.15-3.588 6.904-1.345.889-2.769 1.333-4.273 1.333h-16.509c-.045 0-.068-.023-.068-.068V7.192c0-.046.023-.069.068-.069zm1.161 1.23v22.525h14.937c3.076 0 5.264-1.413 6.562-4.238.297-.82.445-1.652.445-2.495v-8.956c0-2.643-1.253-4.682-3.76-6.118-.98-.478-1.971-.717-2.974-.717h-15.21zm0 23.755V54.77h15.074c2.529 0 4.523-1.14 5.981-3.418a6.954 6.954 0 0 0 .889-3.418V38.91c0-2.392-1.037-4.318-3.11-5.776a6.873 6.873 0 0 0-3.658-1.026h-15.176zm35.05-24.985h16.508c2.552 0 4.717 1.15 6.495 3.452.911 1.436 1.367 2.905 1.367 4.41v9.33c0 2.644-1.185 4.82-3.555 6.529-1.299.911-2.905 1.367-4.82 1.367h-6.972l15.313 23.72V56h-1.402c-.478-.66-5.309-8.146-14.492-22.456-.592-.889-.9-1.333-.923-1.333h-6.357v23.72c0 .046-.023.069-.069.069h-1.093c-.046 0-.069-.023-.069-.068V7.192c0-.046.023-.069.069-.069zm1.162 1.23v22.56h15.176c2.21 0 4.055-.97 5.537-2.906.82-1.208 1.23-2.438 1.23-3.692a.38.38 0 0 1 .171-.034v-.034c-.114 0-.17-.023-.17-.068v-8.58c0-2.141-.57-3.805-1.71-4.99-.592-.638-1.173-1.116-1.743-1.435-1.117-.547-2.188-.82-3.213-.82-.046 0-.068.01-.068.034l-.342-.034h-14.868zm35.049-1.23h24.302c.045 0 .068.023.068.068v1.094c0 .046-.023.069-.068.069h-23.14V30.33h10.938c.045.023.068.046.068.068v1.128c0 .023-.023.035-.068.035h-10.938V54.77h23.14c.045 0 .068.022.068.068v1.094c0 .045-.023.068-.068.068h-24.302c-.046 0-.068-.023-.068-.068V7.192c0-.046.022-.069.068-.069z"/><path d="M2.068 4.986h24.37c.023 0 .035.023.035.069v1.093c0 .046-.012.069-.035.069H3.23v22.046h23.208c.023.022.035.045.035.068v1.128c0 .046-.012.068-.035.068H3.23v24.405c0 .045-.022.068-.068.068H2.068C2.023 54 2 53.977 2 53.932V5.055c0-.046.023-.069.068-.069zm36.212.137H62.58c.046 0 .069.023.069.068v1.094c0 .046-.023.069-.069.069h-23.14V28.33H50.38c.046.023.069.046.069.068v1.128c0 .023-.023.035-.069.035H39.442V52.77h23.14c.045 0 .068.022.068.068v1.094c0 .045-.023.068-.069.068H38.28c-.046 0-.069-.023-.069-.068V5.192c0-.046.023-.069.069-.069zm36.211.103h1.094c.045 0 .068.022.068.068v47.441h23.14c.045 0 .068.023.068.069v1.093c0 .046-.023.069-.068.069H77.465c-.73 0-1.732.011-3.008.034l-.034-.068V5.294c0-.046.022-.068.068-.068zm36.211-.103h1.094c.046 0 .068.023.068.068v48.74c0 .046-.022.069-.068.069h-1.094c-.045 0-.068-.023-.068-.068V5.192c0-.046.023-.069.068-.069zm14.097 0h16.51c2.278 0 4.249.934 5.912 2.803 1.3 1.55 1.949 3.35 1.949 5.4v9.195c0 1.458-.582 2.973-1.744 4.545-1.709 2.028-3.862 3.042-6.46 3.042h-15.004v23.824c0 .045-.023.068-.069.068H124.8c-.045 0-.068-.023-.068-.068V5.192c0-.046.023-.069.068-.069zm1.163 1.23v22.525h15.244c.022 0 .034.011.034.034 1.094-.114 1.948-.296 2.563-.547 1.595-.729 2.746-1.823 3.452-3.281a6.91 6.91 0 0 0 .65-2.94V13.19c0-2.643-1.253-4.682-3.76-6.118-.98-.478-1.97-.717-2.974-.717h-15.21zm34.878-1.23h24.302c.045 0 .068.023.068.068v1.094c0 .046-.023.069-.068.069h-23.14V28.33h10.937c.046.023.069.046.069.068v1.128c0 .023-.023.035-.069.035h-10.937V52.77h23.14c.045 0 .068.022.068.068v1.094c0 .045-.023.068-.068.068H160.84c-.046 0-.069-.023-.069-.068V5.192c0-.046.023-.069.069-.069zm58.682-2.53h.069l12.578 26.66c.205.365 3.623 7.589 10.254 21.67.114.16.17.286.17.377h.035V5.328c.023-.045.045-.068.068-.068h1.196c.046 0 .069.023.069.068v51.543h-.069c-10.117-21.465-15.78-33.462-16.987-35.991l-6.118-12.954h-.034v46.177c0 .045-.023.068-.069.068h-1.093c-.046 0-.069-.023-.069-.068V2.593zm43.526 2.496c.684.023 1.185.034 1.504.034h6.768c.387 0 .877-.011 1.47-.034 1.275.16 2.255.421 2.939.786 1.96 1.048 3.292 2.575 3.999 4.58.296.798.444 1.64.444 2.53v33.12c0 2.757-1.276 5.013-3.828 6.767C275 53.624 273.655 54 272.31 54h-8.75c-2.53 0-4.671-1.128-6.426-3.384-.934-1.458-1.401-2.962-1.401-4.512v-33.12c0-2.757 1.253-5.001 3.76-6.733 1.367-.752 2.551-1.128 3.554-1.128v-.034zm-6.084 7.964v32.983c0 1.823.66 3.407 1.982 4.751 1.322 1.322 2.929 1.983 4.82 1.983h8.374c1.846 0 3.44-.65 4.785-1.949 1.322-1.344 1.982-2.94 1.982-4.785V13.053c0-2.302-1.002-4.182-3.007-5.64-1.117-.73-2.37-1.094-3.76-1.094h-8.374c-1.869 0-3.464.65-4.785 1.949-1.345 1.344-2.017 2.939-2.017 4.785zm35.05-7.93h16.508c2.279 0 4.25.934 5.913 2.803 1.299 1.55 1.948 3.35 1.948 5.4v9.195c0 1.39-.535 2.86-1.606 4.409-.912 1.025-1.63 1.663-2.153 1.914-.251.182-.65.399-1.197.65v.033c1.823.752 3.213 2.063 4.17 3.931.524 1.185.786 2.199.786 3.042v9.263c0 2.848-1.196 5.15-3.588 6.904-1.345.889-2.769 1.333-4.273 1.333h-16.509c-.045 0-.068-.023-.068-.068V5.192c0-.046.023-.069.068-.069zm1.161 1.23v22.525h14.937c3.076 0 5.264-1.413 6.562-4.238.297-.82.445-1.652.445-2.495v-8.956c0-2.643-1.253-4.682-3.76-6.118-.98-.478-1.971-.717-2.974-.717h-15.21zm0 23.755V52.77h15.074c2.529 0 4.523-1.14 5.981-3.418a6.954 6.954 0 0 0 .889-3.418V36.91c0-2.392-1.037-4.318-3.11-5.776a6.873 6.873 0 0 0-3.658-1.026h-15.176zm35.05-24.985h16.508c2.552 0 4.717 1.15 6.495 3.452.911 1.436 1.367 2.905 1.367 4.41v9.33c0 2.644-1.185 4.82-3.555 6.529-1.299.911-2.905 1.367-4.82 1.367h-6.972l15.313 23.72V54h-1.402c-.478-.66-5.309-8.146-14.492-22.456-.592-.889-.9-1.333-.923-1.333h-6.357v23.72c0 .046-.023.069-.069.069h-1.093c-.046 0-.069-.023-.069-.068V5.192c0-.046.023-.069.069-.069zm1.162 1.23v22.56h15.176c2.21 0 4.055-.97 5.537-2.906.82-1.208 1.23-2.438 1.23-3.692a.38.38 0 0 1 .171-.034v-.034c-.114 0-.17-.023-.17-.068v-8.58c0-2.141-.57-3.805-1.71-4.99-.592-.638-1.173-1.116-1.743-1.435-1.117-.547-2.188-.82-3.213-.82-.046 0-.068.01-.068.034l-.342-.034h-14.868zm35.049-1.23h24.302c.045 0 .068.023.068.068v1.094c0 .046-.023.069-.068.069h-23.14V28.33h10.938c.045.023.068.046.068.068v1.128c0 .023-.023.035-.068.035h-10.938V52.77h23.14c.045 0 .068.022.068.068v1.094c0 .045-.023.068-.068.068h-24.302c-.046 0-.068-.023-.068-.068V5.192c0-.046.022-.069.068-.069z"/><path d="M2.068 2.986h24.37c.023 0 .035.023.035.069v1.093c0 .046-.012.069-.035.069H3.23v22.046h23.208c.023.022.035.045.035.068v1.128c0 .046-.012.068-.035.068H3.23v24.405c0 .045-.022.068-.068.068H2.068C2.023 52 2 51.977 2 51.932V3.055c0-.046.023-.069.068-.069zm36.212.137H62.58c.046 0 .069.023.069.068v1.094c0 .046-.023.069-.069.069h-23.14V26.33H50.38c.046.023.069.046.069.068v1.128c0 .023-.023.035-.069.035H39.442V50.77h23.14c.045 0 .068.022.068.068v1.094c0 .045-.023.068-.069.068H38.28c-.046 0-.069-.023-.069-.068V3.192c0-.046.023-.069.069-.069zm36.211.103h1.094c.045 0 .068.022.068.068v47.441h23.14c.045 0 .068.023.068.069v1.093c0 .046-.023.069-.068.069H77.465c-.73 0-1.732.011-3.008.034l-.034-.068V3.294c0-.046.022-.068.068-.068zm36.211-.103h1.094c.046 0 .068.023.068.068v48.74c0 .046-.022.069-.068.069h-1.094c-.045 0-.068-.023-.068-.068V3.192c0-.046.023-.069.068-.069zm14.097 0h16.51c2.278 0 4.249.934 5.912 2.803 1.3 1.55 1.949 3.35 1.949 5.4v9.195c0 1.458-.582 2.973-1.744 4.545-1.709 2.028-3.862 3.042-6.46 3.042h-15.004v23.824c0 .045-.023.068-.069.068H124.8c-.045 0-.068-.023-.068-.068V3.192c0-.046.023-.069.068-.069zm1.163 1.23v22.525h15.244c.022 0 .034.011.034.034 1.094-.114 1.948-.296 2.563-.547 1.595-.729 2.746-1.823 3.452-3.281a6.91 6.91 0 0 0 .65-2.94V11.19c0-2.643-1.253-4.682-3.76-6.118-.98-.478-1.97-.717-2.974-.717h-15.21zm34.878-1.23h24.302c.045 0 .068.023.068.068v1.094c0 .046-.023.069-.068.069h-23.14V26.33h10.937c.046.023.069.046.069.068v1.128c0 .023-.023.035-.069.035h-10.937V50.77h23.14c.045 0 .068.022.068.068v1.094c0 .045-.023.068-.068.068H160.84c-.046 0-.069-.023-.069-.068V3.192c0-.046.023-.069.069-.069zm58.682-2.53h.069l12.578 26.66c.205.365 3.623 7.589 10.254 21.67.114.16.17.286.17.377h.035V3.328c.023-.045.045-.068.068-.068h1.196c.046 0 .069.023.069.068v51.543h-.069c-10.117-21.465-15.78-33.462-16.987-35.991l-6.118-12.954h-.034v46.177c0 .045-.023.068-.069.068h-1.093c-.046 0-.069-.023-.069-.068V.593zm43.526 2.496c.684.023 1.185.034 1.504.034h6.768c.387 0 .877-.011 1.47-.034 1.275.16 2.255.421 2.939.786 1.96 1.048 3.292 2.575 3.999 4.58.296.798.444 1.64.444 2.53v33.12c0 2.757-1.276 5.013-3.828 6.767C275 51.624 273.655 52 272.31 52h-8.75c-2.53 0-4.671-1.128-6.426-3.384-.934-1.458-1.401-2.962-1.401-4.512v-33.12c0-2.757 1.253-5.001 3.76-6.733 1.367-.752 2.551-1.128 3.554-1.128v-.034zm-6.084 7.964v32.983c0 1.823.66 3.407 1.982 4.751 1.322 1.322 2.929 1.983 4.82 1.983h8.374c1.846 0 3.44-.65 4.785-1.949 1.322-1.344 1.982-2.94 1.982-4.785V11.053c0-2.302-1.002-4.182-3.007-5.64-1.117-.73-2.37-1.094-3.76-1.094h-8.374c-1.869 0-3.464.65-4.785 1.949-1.345 1.344-2.017 2.939-2.017 4.785zm35.05-7.93h16.508c2.279 0 4.25.934 5.913 2.803 1.299 1.55 1.948 3.35 1.948 5.4v9.195c0 1.39-.535 2.86-1.606 4.409-.912 1.025-1.63 1.663-2.153 1.914-.251.182-.65.399-1.197.65v.033c1.823.752 3.213 2.063 4.17 3.931.524 1.185.786 2.199.786 3.042v9.263c0 2.848-1.196 5.15-3.588 6.904-1.345.889-2.769 1.333-4.273 1.333h-16.509c-.045 0-.068-.023-.068-.068V3.192c0-.046.023-.069.068-.069zm1.161 1.23v22.525h14.937c3.076 0 5.264-1.413 6.562-4.238.297-.82.445-1.652.445-2.495v-8.956c0-2.643-1.253-4.682-3.76-6.118-.98-.478-1.971-.717-2.974-.717h-15.21zm0 23.755V50.77h15.074c2.529 0 4.523-1.14 5.981-3.418a6.954 6.954 0 0 0 .889-3.418V34.91c0-2.392-1.037-4.318-3.11-5.776a6.873 6.873 0 0 0-3.658-1.026h-15.176zm35.05-24.985h16.508c2.552 0 4.717 1.15 6.495 3.452.911 1.436 1.367 2.905 1.367 4.41v9.33c0 2.644-1.185 4.82-3.555 6.529-1.299.911-2.905 1.367-4.82 1.367h-6.972l15.313 23.72V52h-1.402c-.478-.66-5.309-8.146-14.492-22.456-.592-.889-.9-1.333-.923-1.333h-6.357v23.72c0 .046-.023.069-.069.069h-1.093c-.046 0-.069-.023-.069-.068V3.192c0-.046.023-.069.069-.069zm1.162 1.23v22.56h15.176c2.21 0 4.055-.97 5.537-2.906.82-1.208 1.23-2.438 1.23-3.692a.38.38 0 0 1 .171-.034v-.034c-.114 0-.17-.023-.17-.068v-8.58c0-2.141-.57-3.805-1.71-4.99-.592-.638-1.173-1.116-1.743-1.435-1.117-.547-2.188-.82-3.213-.82-.046 0-.068.01-.068.034l-.342-.034h-14.868zm35.049-1.23h24.302c.045 0 .068.023.068.068v1.094c0 .046-.023.069-.068.069h-23.14V26.33h10.938c.045.023.068.046.068.068v1.128c0 .023-.023.035-.068.035h-10.938V50.77h23.14c.045 0 .068.022.068.068v1.094c0 .045-.023.068-.068.068h-24.302c-.046 0-.068-.023-.068-.068V3.192c0-.046.022-.069.068-.069z"/><path d="M3.068 4.986h24.37c.023 0 .035.023.035.069v1.093c0 .046-.012.069-.035.069H4.23v22.046h23.208c.023.022.035.045.035.068v1.128c0 .046-.012.068-.035.068H4.23v24.405c0 .045-.022.068-.068.068H3.068C3.023 54 3 53.977 3 53.932V5.055c0-.046.023-.069.068-.069zm36.212.137H63.58c.046 0 .069.023.069.068v1.094c0 .046-.023.069-.069.069h-23.14V28.33H51.38c.046.023.069.046.069.068v1.128c0 .023-.023.035-.069.035H40.442V52.77h23.14c.045 0 .068.022.068.068v1.094c0 .045-.023.068-.069.068H39.28c-.046 0-.069-.023-.069-.068V5.192c0-.046.023-.069.069-.069zm36.211.103h1.094c.045 0 .068.022.068.068v47.441h23.14c.045 0 .068.023.068.069v1.093c0 .046-.023.069-.068.069H78.465c-.73 0-1.732.011-3.008.034l-.034-.068V5.294c0-.046.022-.068.068-.068zm36.211-.103h1.094c.046 0 .068.023.068.068v48.74c0 .046-.022.069-.068.069h-1.094c-.045 0-.068-.023-.068-.068V5.192c0-.046.023-.069.068-.069zm14.097 0h16.51c2.278 0 4.249.934 5.912 2.803 1.3 1.55 1.949 3.35 1.949 5.4v9.195c0 1.458-.582 2.973-1.744 4.545-1.709 2.028-3.862 3.042-6.46 3.042h-15.004v23.824c0 .045-.023.068-.069.068H125.8c-.045 0-.068-.023-.068-.068V5.192c0-.046.023-.069.068-.069zm1.163 1.23v22.525h15.244c.022 0 .034.011.034.034 1.094-.114 1.948-.296 2.563-.547 1.595-.729 2.746-1.823 3.452-3.281a6.91 6.91 0 0 0 .65-2.94V13.19c0-2.643-1.253-4.682-3.76-6.118-.98-.478-1.97-.717-2.974-.717h-15.21zm34.878-1.23h24.302c.045 0 .068.023.068.068v1.094c0 .046-.023.069-.068.069h-23.14V28.33h10.937c.046.023.069.046.069.068v1.128c0 .023-.023.035-.069.035h-10.937V52.77h23.14c.045 0 .068.022.068.068v1.094c0 .045-.023.068-.068.068H161.84c-.046 0-.069-.023-.069-.068V5.192c0-.046.023-.069.069-.069zm58.682-2.53h.069l12.578 26.66c.205.365 3.623 7.589 10.254 21.67.114.16.17.286.17.377h.035V5.328c.023-.045.045-.068.068-.068h1.196c.046 0 .069.023.069.068v51.543h-.069c-10.117-21.465-15.78-33.462-16.987-35.991l-6.118-12.954h-.034v46.177c0 .045-.023.068-.069.068h-1.093c-.046 0-.069-.023-.069-.068V2.593zm43.526 2.496c.684.023 1.185.034 1.504.034h6.768c.387 0 .877-.011 1.47-.034 1.275.16 2.255.421 2.939.786 1.96 1.048 3.292 2.575 3.999 4.58.296.798.444 1.64.444 2.53v33.12c0 2.757-1.276 5.013-3.828 6.767C276 53.624 274.655 54 273.31 54h-8.75c-2.53 0-4.671-1.128-6.426-3.384-.934-1.458-1.401-2.962-1.401-4.512v-33.12c0-2.757 1.253-5.001 3.76-6.733 1.367-.752 2.551-1.128 3.554-1.128v-.034zm-6.084 7.964v32.983c0 1.823.66 3.407 1.982 4.751 1.322 1.322 2.929 1.983 4.82 1.983h8.374c1.846 0 3.44-.65 4.785-1.949 1.322-1.344 1.982-2.94 1.982-4.785V13.053c0-2.302-1.002-4.182-3.007-5.64-1.117-.73-2.37-1.094-3.76-1.094h-8.374c-1.869 0-3.464.65-4.785 1.949-1.345 1.344-2.017 2.939-2.017 4.785zm35.05-7.93h16.508c2.279 0 4.25.934 5.913 2.803 1.299 1.55 1.948 3.35 1.948 5.4v9.195c0 1.39-.535 2.86-1.606 4.409-.912 1.025-1.63 1.663-2.153 1.914-.251.182-.65.399-1.197.65v.033c1.823.752 3.213 2.063 4.17 3.931.524 1.185.786 2.199.786 3.042v9.263c0 2.848-1.196 5.15-3.588 6.904-1.345.889-2.769 1.333-4.273 1.333h-16.509c-.045 0-.068-.023-.068-.068V5.192c0-.046.023-.069.068-.069zm1.161 1.23v22.525h14.937c3.076 0 5.264-1.413 6.562-4.238.297-.82.445-1.652.445-2.495v-8.956c0-2.643-1.253-4.682-3.76-6.118-.98-.478-1.971-.717-2.974-.717h-15.21zm0 23.755V52.77h15.074c2.529 0 4.523-1.14 5.981-3.418a6.954 6.954 0 0 0 .889-3.418V36.91c0-2.392-1.037-4.318-3.11-5.776a6.873 6.873 0 0 0-3.658-1.026h-15.176zm35.05-24.985h16.508c2.552 0 4.717 1.15 6.495 3.452.911 1.436 1.367 2.905 1.367 4.41v9.33c0 2.644-1.185 4.82-3.555 6.529-1.299.911-2.905 1.367-4.82 1.367h-6.972l15.313 23.72V54h-1.402c-.478-.66-5.309-8.146-14.492-22.456-.592-.889-.9-1.333-.923-1.333h-6.357v23.72c0 .046-.023.069-.069.069h-1.093c-.046 0-.069-.023-.069-.068V5.192c0-.046.023-.069.069-.069zm1.162 1.23v22.56h15.176c2.21 0 4.055-.97 5.537-2.906.82-1.208 1.23-2.438 1.23-3.692a.38.38 0 0 1 .171-.034v-.034c-.114 0-.17-.023-.17-.068v-8.58c0-2.141-.57-3.805-1.71-4.99-.592-.638-1.173-1.116-1.743-1.435-1.117-.547-2.188-.82-3.213-.82-.046 0-.068.01-.068.034l-.342-.034h-14.868zm35.049-1.23h24.302c.045 0 .068.023.068.068v1.094c0 .046-.023.069-.068.069h-23.14V28.33h10.938c.045.023.068.046.068.068v1.128c0 .023-.023.035-.068.035h-10.938V52.77h23.14c.045 0 .068.022.068.068v1.094c0 .045-.023.068-.068.068h-24.302c-.046 0-.068-.023-.068-.068V5.192c0-.046.022-.069.068-.069z"/></g></symbol><symbol id="filter" viewBox="0 0 26 28"><path d="M1 1h23.918l-9.09 12.356V27.19l-5.738-3.778V13.356z" fill-rule="nonzero" stroke="#D04058" fill="none"/></symbol><symbol id="github" viewBox="0 0 30 30"><path d="M15 0C6.717 0 0 6.67 0 14.898c0 6.582 4.298 12.166 10.258 14.136.75.138 1.052.392 1.052-.002 0-.355-.041-2.243-.047-3.488-4.174.901-5.054-1.758-5.054-1.758-.682-1.722-1.666-2.18-1.666-2.18-1.36-.924.103-.905.103-.905 1.506.105 2.3 1.535 2.3 1.535 1.337 2.277 3.508 1.619 4.364 1.238.135-.963.524-1.62.953-1.992-3.332-.377-6.834-1.654-6.834-7.362 0-1.627.586-2.956 1.545-4-.156-.374-.669-1.89.146-3.942 0 0 1.26-.4 4.126 1.527a14.47 14.47 0 0 1 3.754-.5c1.275.005 2.56.17 3.758.5 2.863-1.927 4.12-1.527 4.12-1.527.817 2.052.304 3.568.148 3.943.962 1.043 1.544 2.372 1.544 3.999 0 5.722-3.51 6.981-6.85 7.35.538.463 1.018 1.37 1.018 2.76v4.804c0 .397.252.144 1.013-.002C25.707 27.06 30 21.478 30 14.898 30 6.67 23.284 0 15 0l-3.526 32.653" fill="#4A4A4A" fill-rule="evenodd"/></symbol><symbol id="hello" viewBox="0 0 309 214"><g fill="#D04058" fill-rule="evenodd"><path d="M86.305 103h-24.54V60.25h-36.35V103H.734V.625h24.68v40.64h36.35V.626h24.54zM166.227 59.617h-38.813v24.399h45.844V103h-70.524V.625h70.664V19.68h-45.984v21.586h38.813zM265.414 189.016h42.961V208h-67.64V105.625h24.68zM87.414 193.016h42.961V212h-67.64V109.625h24.68v83.39zm140.063-30.094c0 9.984-1.852 18.82-5.555 26.508-3.703 7.687-8.965 13.605-15.785 17.754-6.82 4.148-14.59 6.222-23.309 6.222-8.719 0-16.453-2.004-23.203-6.011-6.75-4.008-12.012-9.739-15.785-17.192-3.774-7.453-5.754-16.008-5.942-25.664v-5.766c0-10.03 1.84-18.878 5.52-26.543 3.68-7.664 8.953-13.582 15.82-17.753 6.868-4.172 14.684-6.258 23.45-6.258 8.671 0 16.406 2.062 23.203 6.187 6.797 4.125 12.082 9.996 15.855 17.614 3.774 7.617 5.684 16.347 5.73 26.19v4.712zm-25.102-4.29c0-10.171-1.7-17.894-5.098-23.167-3.398-5.274-8.261-7.91-14.59-7.91-12.375 0-18.914 9.28-19.617 27.843l-.07 7.524c0 10.031 1.664 17.742 4.992 23.133 3.328 5.39 8.274 8.086 14.836 8.086 6.235 0 11.04-2.649 14.414-7.946 3.375-5.297 5.086-12.914 5.133-22.851v-4.711zM24.305 152.008c3.75 0 6.867 1.113 9.351 3.34 2.485 2.226 3.727 5.074 3.727 8.543 0 3.468-1.242 6.316-3.727 8.543-2.484 2.226-5.601 3.34-9.351 3.34-3.797 0-6.926-1.126-9.387-3.376-2.461-2.25-3.691-5.085-3.691-8.507 0-3.422 1.23-6.258 3.691-8.508 2.46-2.25 5.59-3.375 9.387-3.375z"/></g></symbol><symbol id="instagram" viewBox="0 0 30 30"><path d="M15.001 0c-4.073 0-4.585.018-6.185.09C7.22.165 6.13.418 5.176.789a7.345 7.345 0 0 0-2.658 1.73 7.363 7.363 0 0 0-1.73 2.656C.414 6.128.161 7.218.09 8.814.02 10.415 0 10.927 0 15s.018 4.583.09 6.183c.074 1.597.327 2.687.698 3.641a7.35 7.35 0 0 0 1.73 2.657 7.345 7.345 0 0 0 2.656 1.731c.954.371 2.045.624 3.641.697 1.6.073 2.111.091 6.185.091s4.583-.018 6.183-.09c1.597-.074 2.688-.327 3.643-.698a7.34 7.34 0 0 0 2.655-1.73 7.363 7.363 0 0 0 1.731-2.658c.37-.954.622-2.044.697-3.64.072-1.6.091-2.11.091-6.184s-.019-4.585-.09-6.185c-.076-1.597-.329-2.687-.698-3.64a7.362 7.362 0 0 0-1.73-2.658 7.331 7.331 0 0 0-2.657-1.73c-.956-.37-2.047-.623-3.644-.696C19.581.018 19.071 0 14.997 0H15zm-1.345 2.703H15c4.005 0 4.48.014 6.062.086 1.462.067 2.256.312 2.785.517.7.272 1.199.597 1.724 1.122.525.525.85 1.025 1.122 1.725.205.528.45 1.322.517 2.784.071 1.581.087 2.056.087 6.06 0 4.003-.016 4.478-.087 6.059-.067 1.462-.312 2.256-.517 2.784a4.638 4.638 0 0 1-1.122 1.723 4.639 4.639 0 0 1-1.724 1.122c-.528.207-1.323.45-2.785.517-1.582.072-2.057.088-6.062.088-4.005 0-4.48-.016-6.06-.088-1.463-.067-2.257-.312-2.786-.517-.7-.272-1.2-.597-1.725-1.122a4.65 4.65 0 0 1-1.123-1.724c-.205-.528-.45-1.322-.516-2.784-.072-1.582-.087-2.057-.087-6.062 0-4.006.015-4.478.087-6.06.067-1.462.31-2.256.516-2.785.272-.7.598-1.2 1.123-1.725a4.655 4.655 0 0 1 1.725-1.122c.529-.206 1.323-.45 2.785-.517 1.384-.063 1.92-.081 4.716-.085v.004zm9.352 2.49a1.8 1.8 0 1 0 0 3.601 1.8 1.8 0 0 0 0-3.6zm-8.007 2.104a7.703 7.703 0 1 0 .002 15.407A7.703 7.703 0 0 0 15 7.297zm0 2.703a5 5 0 1 1 0 10 5 5 0 0 1 0-10z" fill="#4A4A4A" fill-rule="evenodd"/></symbol><symbol id="logo" viewBox="-32 47 84 57"><g fill="#D04059"><path d="M3 87c0 10.1-8.1 15.7-16.7 15.7h-.1V93h.1c3.6 0 6.7-2.4 6.7-6 0-4-3.7-6.4-6.7-6.5-.5 0-4.1 0-8-1.8-5.6-2.6-8.8-7.4-8.8-13.6 0-10.1 8.2-16.3 16.8-16.3 9.2 0 16.4 6.2 16.5 15.4.1.2-.3.5-.7.5h-8.4c-.4 0-.7-.3-.7-.5-.1-3.8-3.1-5.7-6.6-5.7-3.7 0-6.7 2.2-6.7 6.5 0 3.9 3.3 5.9 6.7 5.9.3 0 4.1 0 8 1.8C-.1 75.4 3 80.7 3 87zM50.1 49.4v52.8c0 .3-.3.6-.7.6h-8.9c-.1 0-.5-.1-.6-.2L15 67v22.8H4.7V49.4c0-.3.3-.6.7-.6h9c.1 0 .5.1.6.2l24.9 35.6V49.4c0-.3.3-.6.8-.6h8.7c.5-.1.7.3.7.6z"/></g></symbol><symbol id="management" viewBox="0 0 91 80"><path d="M84.21 0c-3.12 0-5.717 2.28-6.216 5.263H64.21a1.053 1.053 0 0 0-.1 0 1.053 1.053 0 0 0-.953 1.053v32.631h-9.474a1.057 1.057 0 1 0 0 2.105h9.474v32.632c0 .582.471 1.053 1.053 1.053h13.783C78.494 77.72 81.09 80 84.21 80c3.475 0 6.315-2.84 6.315-6.316 0-3.475-2.84-6.316-6.315-6.316-3.121 0-5.718 2.28-6.217 5.264h-12.73v-31.58h12.73c.5 2.985 3.096 5.264 6.217 5.264 3.475 0 6.315-2.84 6.315-6.316s-2.84-6.316-6.315-6.316c-3.121 0-5.718 2.28-6.217 5.263h-12.73V7.368h12.73c.5 2.984 3.096 5.264 6.217 5.264 3.475 0 6.315-2.84 6.315-6.316S87.686 0 84.211 0zm0 2.105a4.195 4.195 0 0 1 4.211 4.21 4.195 4.195 0 0 1-4.21 4.211A4.195 4.195 0 0 1 80 6.316a4.195 4.195 0 0 1 4.21-4.21zm-60 13.684c-5.8 0-10.526 4.726-10.526 10.527 0 5.8 4.726 10.526 10.527 10.526 5.8 0 10.526-4.725 10.526-10.526S30.012 15.789 24.21 15.789zm0 2.106a8.405 8.405 0 0 1 8.422 8.42 8.405 8.405 0 0 1-8.421 8.422 8.405 8.405 0 0 1-8.421-8.421 8.405 8.405 0 0 1 8.42-8.421zm60 17.894A4.195 4.195 0 0 1 88.422 40a4.195 4.195 0 0 1-4.21 4.21A4.195 4.195 0 0 1 80 40a4.195 4.195 0 0 1 4.21-4.21zm-60 7.369c-13.255 0-24.21 8.84-24.21 20a1.053 1.053 0 1 0 2.105 0c0-9.77 9.781-17.895 22.106-17.895 11.872 0 21.291 7.556 21.973 16.842H7.37a1.053 1.053 0 1 0 0 2.106h40c.58 0 1.052-.472 1.052-1.053 0-11.16-10.955-20-24.21-20zm60 26.316a4.195 4.195 0 0 1 4.211 4.21 4.195 4.195 0 0 1-4.21 4.21 4.195 4.195 0 0 1-4.21-4.21 4.195 4.195 0 0 1 4.21-4.21z" fill-rule="nonzero" fill="#4A4A4A"/></symbol><symbol id="menu-icon" viewBox="0 0 66 36"><g fill="none" fill-rule="evenodd"><path d="M19.5 26.5h22M1.5 16.5h40M15.5 7.5h26" stroke="#4A4A4A" stroke-width="3" stroke-linecap="square"/><text transform="rotate(-90 57.5 17.5)" font-family="Roboto-Medium, Roboto" font-size="13" font-weight="400" fill="#4A4A4A"><tspan x="39" y="25">MENU</tspan></text></g></symbol><symbol id="organisation" viewBox="0 0 55 60"><path d="M.588.003A.704.704 0 0 0 0 .701v51.625c0 .385.324.698.724.698h25.329a.73.73 0 0 0 .635-.346.676.676 0 0 0 0-.704.73.73 0 0 0-.635-.346H1.447V1.398H39.08v33.814c-3.844.845-7.032 3.33-8.752 6.65H7.96a.75.75 0 0 0-.136 0 .708.708 0 0 0-.656.762.72.72 0 0 0 .792.633h21.755a12.052 12.052 0 0 0-.769 4.186C28.947 54.37 34.788 60 41.974 60 49.159 60 55 54.37 55 47.443c0-6.928-5.84-12.558-13.026-12.558-.489 0-.973.036-1.448.087V.701a.711.711 0 0 0-.723-.698H.723a.75.75 0 0 0-.135 0zm7.237 10.465a.708.708 0 0 0-.656.763.72.72 0 0 0 .792.632h24.605a.73.73 0 0 0 .635-.346.676.676 0 0 0 0-.703.73.73 0 0 0-.635-.346H7.96a.75.75 0 0 0-.136 0zm0 10.464a.708.708 0 0 0-.656.763.72.72 0 0 0 .792.633h24.605a.73.73 0 0 0 .635-.346.676.676 0 0 0 0-.704.73.73 0 0 0-.635-.346H7.96a.75.75 0 0 0-.136 0zm0 10.465a.708.708 0 0 0-.656.763.72.72 0 0 0 .792.632h24.605a.73.73 0 0 0 .635-.346.676.676 0 0 0 0-.703.73.73 0 0 0-.635-.346H7.96a.75.75 0 0 0-.136 0zm34.149 4.883c6.403 0 11.579 4.99 11.579 11.163s-5.176 11.162-11.58 11.162c-6.403 0-11.578-4.99-11.578-11.162 0-6.173 5.175-11.163 11.579-11.163zm5.02 6.257a.734.734 0 0 0-.497.24l-7.44 7.827-3.076-2.965a.747.747 0 0 0-1.026-.008.684.684 0 0 0-.015.989l3.619 3.488c.14.14.334.217.536.213a.735.735 0 0 0 .527-.235l7.96-8.372a.679.679 0 0 0 .13-.785.729.729 0 0 0-.718-.392z" fill-rule="nonzero" fill="#4A4A4A"/></symbol><symbol id="spin" viewBox="0 0 400 250"><path opacity=".25" d="M16 0a16 16 0 0 0 0 32 16 16 0 0 0 0-32m0 4a12 12 0 0 1 0 24 12 12 0 0 1 0-24"/><path d="M16 0a16 16 0 0 1 16 16h-4A12 12 0 0 0 16 4z"><animateTransform attributeName="transform" type="rotate" from="0 16 16" to="360 16 16" dur="0.8s" repeatCount="indefinite"/></path></symbol><symbol id="timber" viewBox="0 0 104.45 30"><defs><style>.a{fill:#fff}.b{fill:#54ffb9}</style></defs><title>Logo Tiny White</title><path class="a" d="M32.41 13.27h-3.68V10h11.15v3.26h-3.7v13h-3.77zM44.28 9.1A2.26 2.26 0 1 1 42 11.36a2.26 2.26 0 0 1 2.28-2.26zm-1.77 6h3.56v11.2h-3.56zM62.61 26.3v-6.05c0-1.51-.51-2.42-1.72-2.42S59 18.51 59 20.67v5.63h-3.45v-6.07c0-1.51-.49-2.4-1.68-2.4s-1.93.7-1.93 2.91v5.56H48.5V15.09h3.44v1.63a3.51 3.51 0 0 1 3.24-1.91 3.28 3.28 0 0 1 3.4 2 3.83 3.83 0 0 1 3.51-2c3.26 0 3.91 2.19 3.91 4.58v6.91zM72 26.3h-3.55V10H72v6.68a4.06 4.06 0 0 1 3.44-1.89c3.24 0 5.47 2.54 5.47 5.89s-2.23 5.89-5.47 5.89A4 4 0 0 1 72 24.72zm5.35-5.61a2.68 2.68 0 1 0-5.35 0 2.68 2.68 0 1 0 5.35 0zM86.31 21.56c.07 1.35.63 2.49 2.49 2.49a1.92 1.92 0 0 0 2.07-1.28h3.49c-.36 2.11-2.36 3.84-5.54 3.84-3.93 0-6.05-2.44-6.05-5.91a5.58 5.58 0 0 1 6-5.91c3.51 0 5.77 2.37 5.77 5.12a9 9 0 0 1-.12 1.65zm0-2H91a2.35 2.35 0 0 0-4.7 0zM104.45 18.32a4.67 4.67 0 0 0-1.26-.16c-2 0-3.24 1-3.24 3.77v4.37H96.4V15.09h3.6v1.81a3.91 3.91 0 0 1 3.42-2 2.52 2.52 0 0 1 1.07.19z"/><path class="b" d="M24.65 26.39l-1.56-2h-8.97v-2.15h7.3l-1.55-2h-5.75v-2.15h7.61l-1.44-2h-6.17v-2.15h4.63l-1.44-2h-3.19V9.79h4.38l-1.41-2h-2.97V5.64h1.45l-1.41-2h-.04V0L7.54 9.17l3.7.01-7.47 10.41h3.85L0 30h14.12v-3.61h10.53z"/></symbol><symbol id="timekeeping" viewBox="0 0 80 80"><g fill-rule="nonzero" fill="#4A4A4A"><path d="M40 0c-.306 0-.605.018-.91.025v21.794h3.637V3.775C61.506 5.178 76.364 20.87 76.364 40c0 20.052-16.314 36.364-36.364 36.364C19.948 76.364 3.636 60.052 3.636 40c0-9.847 3.949-18.779 10.328-25.332l-2.592-2.59C4.34 19.283 0 29.132 0 40c0 22.092 17.908 40 40 40s40-17.908 40-40S62.092 0 40 0"/><path d="M41.332 44.541c2.23-.523 4.526-1.91 4.396-5.411-.057-1.634-1.003-3.111-2.351-4.033L20 19.092l15.582 23.17c1.262 1.875 3.55 2.794 5.75 2.28"/></g></symbol></svg>