<?xml version="1.0" encoding="UTF-8"?><!DOCTYPE svg PUBLIC "-//W3C//DTD SVG 1.1//EN" "http://www.w3.org/Graphics/SVG/1.1/DTD/svg11.dtd"><svg xmlns="http://www.w3.org/2000/svg"><symbol id="felipenobre" viewBox="0 0 390 60"><title>FelipeNobre</title><g fill="#D04058" fill-rule="evenodd"><path d="M.068 4.986h24.37c.023 0 .035.023.035.069v1.093c0 .046-.012.069-.035.069H1.23v22.046h23.208c.023.022.035.045.035.068v1.128c0 .046-.012.068-.035.068H1.23v24.405c0 .045-.022.068-.068.068H.068C.023 54 0 53.977 0 53.932V5.055c0-.046.023-.069.068-.069zm36.212.137H60.58c.046 0 .069.023.069.068v1.094c0 .046-.023.069-.069.069h-23.14V28.33H48.38c.046.023.069.046.069.068v1.128c0 .023-.023.035-.069.035H37.442V52.77h23.14c.045 0 .068.022.068.068v1.094c0 .045-.023.068-.069.068H36.28c-.046 0-.069-.023-.069-.068V5.192c0-.046.023-.069.069-.069zm36.211.103h1.094c.045 0 .068.022.068.068v47.441h23.14c.045 0 .068.023.068.069v1.093c0 .046-.023.069-.068.069H75.465c-.73 0-1.732.011-3.008.034l-.034-.068V5.294c0-.046.022-.068.068-.068zm36.211-.103h1.094c.046 0 .068.023.068.068v48.74c0 .046-.022.069-.068.069h-1.094c-.045 0-.068-.023-.068-.068V5.192c0-.046.023-.069.068-.069zm14.097 0h16.51c2.278 0 4.249.934 5.912 2.803 1.3 1.55 1.949 3.35 1.949 5.4v9.195c0 1.458-.582 2.973-1.744 4.545-1.709 2.028-3.862 3.042-6.46 3.042h-15.004v23.824c0 .045-.023.068-.069.068H122.8c-.045 0-.068-.023-.068-.068V5.192c0-.046.023-.069.068-.069zm1.163 1.23v22.525h15.244c.022 0 .034.011.034.034 1.094-.114 1.948-.296 2.563-.547 1.595-.729 2.746-1.823 3.452-3.281a6.91 6.91 0 0 0 .65-2.94V13.19c0-2.643-1.253-4.682-3.76-6.118-.98-.478-1.97-.717-2.974-.717h-15.21zm34.878-1.23h24.302c.045 0 .068.023.068.068v1.094c0 .046-.023.069-.068.069h-23.14V28.33h10.937c.046.023.069.046.069.068v1.128c0 .023-.023.035-.069.035h-10.937V52.77h23.14c.045 0 .068.022.068.068v1.094c0 .045-.023.068-.068.068H158.84c-.046 0-.069-.023-.069-.068V5.192c0-.046.023-.069.069-.069zm58.682-2.53h.069l12.578 26.66c.205.365 3.623 7.589 10.254 21.67.114.16.17.286.17.377h.035V5.328c.023-.045.045-.068.068-.068h1.196c.046 0 .069.023.069.068v51.543h-.069c-10.117-21.465-15.78-33.462-16.987-35.991l-6.118-12.954h-.034v46.177c0 .045-.023.068-.069.068h-1.093c-.046 0-.069-.023-.069-.068V2.593zm43.526 2.496c.684.023 1.185.034 1.504.034h6.768c.387 0 .877-.011 1.47-.034 1.275.16 2.255.421 2.939.786 1.96 1.048 3.292 2.575 3.999 4.58.296.798.444 1.64.444 2.53v33.12c0 2.757-1.276 5.013-3.828 6.767C273 53.624 271.655 54 270.31 54h-8.75c-2.53 0-4.671-1.128-6.426-3.384-.934-1.458-1.401-2.962-1.401-4.512v-33.12c0-2.757 1.253-5.001 3.76-6.733 1.367-.752 2.551-1.128 3.554-1.128v-.034zm-6.084 7.964v32.983c0 1.823.66 3.407 1.982 4.751 1.322 1.322 2.929 1.983 4.82 1.983h8.374c1.846 0 3.44-.65 4.785-1.949 1.322-1.344 1.982-2.94 1.982-4.785V13.053c0-2.302-1.002-4.182-3.007-5.64-1.117-.73-2.37-1.094-3.76-1.094h-8.374c-1.869 0-3.464.65-4.785 1.949-1.345 1.344-2.017 2.939-2.017 4.785zm35.05-7.93h16.508c2.279 0 4.25.934 5.913 2.803 1.299 1.55 1.948 3.35 1.948 5.4v9.195c0 1.39-.535 2.86-1.606 4.409-.912 1.025-1.63 1.663-2.153 1.914-.251.182-.65.399-1.197.65v.033c1.823.752 3.213 2.063 4.17 3.931.524 1.185.786 2.199.786 3.042v9.263c0 2.848-1.196 5.15-3.588 6.904-1.345.889-2.769 1.333-4.273 1.333h-16.509c-.045 0-.068-.023-.068-.068V5.192c0-.046.023-.069.068-.069zm1.161 1.23v22.525h14.937c3.076 0 5.264-1.413 6.562-4.238.297-.82.445-1.652.445-2.495v-8.956c0-2.643-1.253-4.682-3.76-6.118-.98-.478-1.971-.717-2.974-.717h-15.21zm0 23.755V52.77h15.074c2.529 0 4.523-1.14 5.981-3.418a6.954 6.954 0 0 0 .889-3.418V36.91c0-2.392-1.037-4.318-3.11-5.776a6.873 6.873 0 0 0-3.658-1.026h-15.176zm35.05-24.985h16.508c2.552 0 4.717 1.15 6.495 3.452.911 1.436 1.367 2.905 1.367 4.41v9.33c0 2.644-1.185 4.82-3.555 6.529-1.299.911-2.905 1.367-4.82 1.367h-6.972l15.313 23.72V54h-1.402c-.478-.66-5.309-8.146-14.492-22.456-.592-.889-.9-1.333-.923-1.333h-6.357v23.72c0 .046-.023.069-.069.069h-1.093c-.046 0-.069-.023-.069-.068V5.192c0-.046.023-.069.069-.069zm1.162 1.23v22.56h15.176c2.21 0 4.055-.97 5.537-2.906.82-1.208 1.23-2.438 1.23-3.692a.38.38 0 0 1 .171-.034v-.034c-.114 0-.17-.023-.17-.068v-8.58c0-2.141-.57-3.805-1.71-4.99-.592-.638-1.173-1.116-1.743-1.435-1.117-.547-2.188-.82-3.213-.82-.046 0-.068.01-.068.034l-.342-.034h-14.868zm35.049-1.23h24.302c.045 0 .068.023.068.068v1.094c0 .046-.023.069-.068.069h-23.14V28.33h10.938c.045.023.068.046.068.068v1.128c0 .023-.023.035-.068.035h-10.938V52.77h23.14c.045 0 .068.022.068.068v1.094c0 .045-.023.068-.068.068h-24.302c-.046 0-.068-.023-.068-.068V5.192c0-.046.022-.069.068-.069z"/><path d="M.068 7.986h24.37c.023 0 .035.023.035.069v1.093c0 .046-.012.069-.035.069H1.23v22.046h23.208c.023.022.035.045.035.068v1.128c0 .046-.012.068-.035.068H1.23v24.405c0 .045-.022.068-.068.068H.068C.023 57 0 56.977 0 56.932V8.055c0-.046.023-.069.068-.069zm36.212.137H60.58c.046 0 .069.023.069.068v1.094c0 .046-.023.069-.069.069h-23.14V31.33H48.38c.046.023.069.046.069.068v1.128c0 .023-.023.035-.069.035H37.442V55.77h23.14c.045 0 .068.022.068.068v1.094c0 .045-.023.068-.069.068H36.28c-.046 0-.069-.023-.069-.068V8.192c0-.046.023-.069.069-.069zm36.211.103h1.094c.045 0 .068.022.068.068v47.441h23.14c.045 0 .068.023.068.069v1.093c0 .046-.023.069-.068.069H75.465c-.73 0-1.732.011-3.008.034l-.034-.068V8.294c0-.046.022-.068.068-.068zm36.211-.103h1.094c.046 0 .068.023.068.068v48.74c0 .046-.022.069-.068.069h-1.094c-.045 0-.068-.023-.068-.068V8.192c0-.046.023-.069.068-.069zm14.097 0h16.51c2.278 0 4.249.934 5.912 2.803 1.3 1.55 1.949 3.35 1.949 5.4v9.195c0 1.458-.582 2.973-1.744 4.545-1.709 2.028-3.862 3.042-6.46 3.042h-15.004v23.824c0 .045-.023.068-.069.068H122.8c-.045 0-.068-.023-.068-.068V8.192c0-.046.023-.069.068-.069zm1.163 1.23v22.525h15.244c.022 0 .034.011.034.034 1.094-.114 1.948-.296 2.563-.547 1.595-.729 2.746-1.823 3.452-3.281a6.91 6.91 0 0 0 .65-2.94V16.19c0-2.643-1.253-4.682-3.76-6.118-.98-.478-1.97-.717-2.974-.717h-15.21zm34.878-1.23h24.302c.045 0 .068.023.068.068v1.094c0 .046-.023.069-.068.069h-23.14V31.33h10.937c.046.023.069.046.069.068v1.128c0 .023-.023.035-.069.035h-10.937V55.77h23.14c.045 0 .068.022.068.068v1.094c0 .045-.023.068-.068.068H158.84c-.046 0-.069-.023-.069-.068V8.192c0-.046.023-.069.069-.069zm58.682-2.53h.069l12.578 26.66c.205.365 3.623 7.589 10.254 21.67.114.16.17.286.17.377h.035V8.328c.023-.045.045-.068.068-.068h1.196c.046 0 .069.023.069.068v51.543h-.069c-10.117-21.465-15.78-33.462-16.987-35.991l-6.118-12.954h-.034v46.177c0 .045-.023.068-.069.068h-1.093c-.046 0-.069-.023-.069-.068V5.593zm43.526 2.496c.684.023 1.185.034 1.504.034h6.768c.387 0 .877-.011 1.47-.034 1.275.16 2.255.421 2.939.786 1.96 1.048 3.292 2.575 3.999 4.58.296.798.444 1.64.444 2.53v33.12c0 2.757-1.276 5.013-3.828 6.767C273 56.624 271.655 57 270.31 57h-8.75c-2.53 0-4.671-1.128-6.426-3.384-.934-1.458-1.401-2.962-1.401-4.512v-33.12c0-2.757 1.253-5.001 3.76-6.733 1.367-.752 2.551-1.128 3.554-1.128v-.034zm-6.084 7.964v32.983c0 1.823.66 3.407 1.982 4.751 1.322 1.322 2.929 1.983 4.82 1.983h8.374c1.846 0 3.44-.65 4.785-1.949 1.322-1.344 1.982-2.94 1.982-4.785V16.053c0-2.302-1.002-4.182-3.007-5.64-1.117-.73-2.37-1.094-3.76-1.094h-8.374c-1.869 0-3.464.65-4.785 1.949-1.345 1.344-2.017 2.939-2.017 4.785zm35.05-7.93h16.508c2.279 0 4.25.934 5.913 2.803 1.299 1.55 1.948 3.35 1.948 5.4v9.195c0 1.39-.535 2.86-1.606 4.409-.912 1.025-1.63 1.663-2.153 1.914-.251.182-.65.399-1.197.65v.033c1.823.752 3.213 2.063 4.17 3.931.524 1.185.786 2.199.786 3.042v9.263c0 2.848-1.196 5.15-3.588 6.904-1.345.889-2.769 1.333-4.273 1.333h-16.509c-.045 0-.068-.023-.068-.068V8.192c0-.046.023-.069.068-.069zm1.161 1.23v22.525h14.937c3.076 0 5.264-1.413 6.562-4.238.297-.82.445-1.652.445-2.495v-8.956c0-2.643-1.253-4.682-3.76-6.118-.98-.478-1.971-.717-2.974-.717h-15.21zm0 23.755V55.77h15.074c2.529 0 4.523-1.14 5.981-3.418a6.954 6.954 0 0 0 .889-3.418V39.91c0-2.392-1.037-4.318-3.11-5.776a6.873 6.873 0 0 0-3.658-1.026h-15.176zm35.05-24.985h16.508c2.552 0 4.717 1.15 6.495 3.452.911 1.436 1.367 2.905 1.367 4.41v9.33c0 2.644-1.185 4.82-3.555 6.529-1.299.911-2.905 1.367-4.82 1.367h-6.972l15.313 23.72V57h-1.402c-.478-.66-5.309-8.146-14.492-22.456-.592-.889-.9-1.333-.923-1.333h-6.357v23.72c0 .046-.023.069-.069.069h-1.093c-.046 0-.069-.023-.069-.068V8.192c0-.046.023-.069.069-.069zm1.162 1.23v22.56h15.176c2.21 0 4.055-.97 5.537-2.906.82-1.208 1.23-2.438 1.23-3.692a.38.38 0 0 1 .171-.034v-.034c-.114 0-.17-.023-.17-.068v-8.58c0-2.141-.57-3.805-1.71-4.99-.592-.638-1.173-1.116-1.743-1.435-1.117-.547-2.188-.82-3.213-.82-.046 0-.068.01-.068.034l-.342-.034h-14.868zm35.049-1.23h24.302c.045 0 .068.023.068.068v1.094c0 .046-.023.069-.068.069h-23.14V31.33h10.938c.045.023.068.046.068.068v1.128c0 .023-.023.035-.068.035h-10.938V55.77h23.14c.045 0 .068.022.068.068v1.094c0 .045-.023.068-.068.068h-24.302c-.046 0-.068-.023-.068-.068V8.192c0-.046.022-.069.068-.069z"/><path d="M.068 6.986h24.37c.023 0 .035.023.035.069v1.093c0 .046-.012.069-.035.069H1.23v22.046h23.208c.023.022.035.045.035.068v1.128c0 .046-.012.068-.035.068H1.23v24.405c0 .045-.022.068-.068.068H.068C.023 56 0 55.977 0 55.932V7.055c0-.046.023-.069.068-.069zm36.212.137H60.58c.046 0 .069.023.069.068v1.094c0 .046-.023.069-.069.069h-23.14V30.33H48.38c.046.023.069.046.069.068v1.128c0 .023-.023.035-.069.035H37.442V54.77h23.14c.045 0 .068.022.068.068v1.094c0 .045-.023.068-.069.068H36.28c-.046 0-.069-.023-.069-.068V7.192c0-.046.023-.069.069-.069zm36.211.103h1.094c.045 0 .068.022.068.068v47.441h23.14c.045 0 .068.023.068.069v1.093c0 .046-.023.069-.068.069H75.465c-.73 0-1.732.011-3.008.034l-.034-.068V7.294c0-.046.022-.068.068-.068zm36.211-.103h1.094c.046 0 .068.023.068.068v48.74c0 .046-.022.069-.068.069h-1.094c-.045 0-.068-.023-.068-.068V7.192c0-.046.023-.069.068-.069zm14.097 0h16.51c2.278 0 4.249.934 5.912 2.803 1.3 1.55 1.949 3.35 1.949 5.4v9.195c0 1.458-.582 2.973-1.744 4.545-1.709 2.028-3.862 3.042-6.46 3.042h-15.004v23.824c0 .045-.023.068-.069.068H122.8c-.045 0-.068-.023-.068-.068V7.192c0-.046.023-.069.068-.069zm1.163 1.23v22.525h15.244c.022 0 .034.011.034.034 1.094-.114 1.948-.296 2.563-.547 1.595-.729 2.746-1.823 3.452-3.281a6.91 6.91 0 0 0 .65-2.94V15.19c0-2.643-1.253-4.682-3.76-6.118-.98-.478-1.97-.717-2.974-.717h-15.21zm34.878-1.23h24.302c.045 0 .068.023.068.068v1.094c0 .046-.023.069-.068.069h-23.14V30.33h10.937c.046.023.069.046.069.068v1.128c0 .023-.023.035-.069.035h-10.937V54.77h23.14c.045 0 .068.022.068.068v1.094c0 .045-.023.068-.068.068H158.84c-.046 0-.069-.023-.069-.068V7.192c0-.046.023-.069.069-.069zm58.682-2.53h.069l12.578 26.66c.205.365 3.623 7.589 10.254 21.67.114.16.17.286.17.377h.035V7.328c.023-.045.045-.068.068-.068h1.196c.046 0 .069.023.069.068v51.543h-.069c-10.117-21.465-15.78-33.462-16.987-35.991l-6.118-12.954h-.034v46.177c0 .045-.023.068-.069.068h-1.093c-.046 0-.069-.023-.069-.068V4.593zm43.526 2.496c.684.023 1.185.034 1.504.034h6.768c.387 0 .877-.011 1.47-.034 1.275.16 2.255.421 2.939.786 1.96 1.048 3.292 2.575 3.999 4.58.296.798.444 1.64.444 2.53v33.12c0 2.757-1.276 5.013-3.828 6.767C273 55.624 271.655 56 270.31 56h-8.75c-2.53 0-4.671-1.128-6.426-3.384-.934-1.458-1.401-2.962-1.401-4.512v-33.12c0-2.757 1.253-5.001 3.76-6.733 1.367-.752 2.551-1.128 3.554-1.128v-.034zm-6.084 7.964v32.983c0 1.823.66 3.407 1.982 4.751 1.322 1.322 2.929 1.983 4.82 1.983h8.374c1.846 0 3.44-.65 4.785-1.949 1.322-1.344 1.982-2.94 1.982-4.785V15.053c0-2.302-1.002-4.182-3.007-5.64-1.117-.73-2.37-1.094-3.76-1.094h-8.374c-1.869 0-3.464.65-4.785 1.949-1.345 1.344-2.017 2.939-2.017 4.785zm35.05-7.93h16.508c2.279 0 4.25.934 5.913 2.803 1.299 1.55 1.948 3.35 1.948 5.4v9.195c0 1.39-.535 2.86-1.606 4.409-.912 1.025-1.63 1.663-2.153 1.914-.251.182-.65.399-1.197.65v.033c1.823.752 3.213 2.063 4.17 3.931.524 1.185.786 2.199.786 3.042v9.263c0 2.848-1.196 5.15-3.588 6.904-1.345.889-2.769 1.333-4.273 1.333h-16.509c-.045 0-.068-.023-.068-.068V7.192c0-.046.023-.069.068-.069zm1.161 1.23v22.525h14.937c3.076 0 5.264-1.413 6.562-4.238.297-.82.445-1.652.445-2.495v-8.956c0-2.643-1.253-4.682-3.76-6.118-.98-.478-1.971-.717-2.974-.717h-15.21zm0 23.755V54.77h15.074c2.529 0 4.523-1.14 5.981-3.418a6.954 6.954 0 0 0 .889-3.418V38.91c0-2.392-1.037-4.318-3.11-5.776a6.873 6.873 0 0 0-3.658-1.026h-15.176zm35.05-24.985h16.508c2.552 0 4.717 1.15 6.495 3.452.911 1.436 1.367 2.905 1.367 4.41v9.33c0 2.644-1.185 4.82-3.555 6.529-1.299.911-2.905 1.367-4.82 1.367h-6.972l15.313 23.72V56h-1.402c-.478-.66-5.309-8.146-14.492-22.456-.592-.889-.9-1.333-.923-1.333h-6.357v23.72c0 .046-.023.069-.069.069h-1.093c-.046 0-.069-.023-.069-.068V7.192c0-.046.023-.069.069-.069zm1.162 1.23v22.56h15.176c2.21 0 4.055-.97 5.537-2.906.82-1.208 1.23-2.438 1.23-3.692a.38.38 0 0 1 .171-.034v-.034c-.114 0-.17-.023-.17-.068v-8.58c0-2.141-.57-3.805-1.71-4.99-.592-.638-1.173-1.116-1.743-1.435-1.117-.547-2.188-.82-3.213-.82-.046 0-.068.01-.068.034l-.342-.034h-14.868zm35.049-1.23h24.302c.045 0 .068.023.068.068v1.094c0 .046-.023.069-.068.069h-23.14V30.33h10.938c.045.023.068.046.068.068v1.128c0 .023-.023.035-.068.035h-10.938V54.77h23.14c.045 0 .068.022.068.068v1.094c0 .045-.023.068-.068.068h-24.302c-.046 0-.068-.023-.068-.068V7.192c0-.046.022-.069.068-.069z"/><path d="M2.068 4.986h24.37c.023 0 .035.023.035.069v1.093c0 .046-.012.069-.035.069H3.23v22.046h23.208c.023.022.035.045.035.068v1.128c0 .046-.012.068-.035.068H3.23v24.405c0 .045-.022.068-.068.068H2.068C2.023 54 2 53.977 2 53.932V5.055c0-.046.023-.069.068-.069zm36.212.137H62.58c.046 0 .069.023.069.068v1.094c0 .046-.023.069-.069.069h-23.14V28.33H50.38c.046.023.069.046.069.068v1.128c0 .023-.023.035-.069.035H39.442V52.77h23.14c.045 0 .068.022.068.068v1.094c0 .045-.023.068-.069.068H38.28c-.046 0-.069-.023-.069-.068V5.192c0-.046.023-.069.069-.069zm36.211.103h1.094c.045 0 .068.022.068.068v47.441h23.14c.045 0 .068.023.068.069v1.093c0 .046-.023.069-.068.069H77.465c-.73 0-1.732.011-3.008.034l-.034-.068V5.294c0-.046.022-.068.068-.068zm36.211-.103h1.094c.046 0 .068.023.068.068v48.74c0 .046-.022.069-.068.069h-1.094c-.045 0-.068-.023-.068-.068V5.192c0-.046.023-.069.068-.069zm14.097 0h16.51c2.278 0 4.249.934 5.912 2.803 1.3 1.55 1.949 3.35 1.949 5.4v9.195c0 1.458-.582 2.973-1.744 4.545-1.709 2.028-3.862 3.042-6.46 3.042h-15.004v23.824c0 .045-.023.068-.069.068H124.8c-.045 0-.068-.023-.068-.068V5.192c0-.046.023-.069.068-.069zm1.163 1.23v22.525h15.244c.022 0 .034.011.034.034 1.094-.114 1.948-.296 2.563-.547 1.595-.729 2.746-1.823 3.452-3.281a6.91 6.91 0 0 0 .65-2.94V13.19c0-2.643-1.253-4.682-3.76-6.118-.98-.478-1.97-.717-2.974-.717h-15.21zm34.878-1.23h24.302c.045 0 .068.023.068.068v1.094c0 .046-.023.069-.068.069h-23.14V28.33h10.937c.046.023.069.046.069.068v1.128c0 .023-.023.035-.069.035h-10.937V52.77h23.14c.045 0 .068.022.068.068v1.094c0 .045-.023.068-.068.068H160.84c-.046 0-.069-.023-.069-.068V5.192c0-.046.023-.069.069-.069zm58.682-2.53h.069l12.578 26.66c.205.365 3.623 7.589 10.254 21.67.114.16.17.286.17.377h.035V5.328c.023-.045.045-.068.068-.068h1.196c.046 0 .069.023.069.068v51.543h-.069c-10.117-21.465-15.78-33.462-16.987-35.991l-6.118-12.954h-.034v46.177c0 .045-.023.068-.069.068h-1.093c-.046 0-.069-.023-.069-.068V2.593zm43.526 2.496c.684.023 1.185.034 1.504.034h6.768c.387 0 .877-.011 1.47-.034 1.275.16 2.255.421 2.939.786 1.96 1.048 3.292 2.575 3.999 4.58.296.798.444 1.64.444 2.53v33.12c0 2.757-1.276 5.013-3.828 6.767C275 53.624 273.655 54 272.31 54h-8.75c-2.53 0-4.671-1.128-6.426-3.384-.934-1.458-1.401-2.962-1.401-4.512v-33.12c0-2.757 1.253-5.001 3.76-6.733 1.367-.752 2.551-1.128 3.554-1.128v-.034zm-6.084 7.964v32.983c0 1.823.66 3.407 1.982 4.751 1.322 1.322 2.929 1.983 4.82 1.983h8.374c1.846 0 3.44-.65 4.785-1.949 1.322-1.344 1.982-2.94 1.982-4.785V13.053c0-2.302-1.002-4.182-3.007-5.64-1.117-.73-2.37-1.094-3.76-1.094h-8.374c-1.869 0-3.464.65-4.785 1.949-1.345 1.344-2.017 2.939-2.017 4.785zm35.05-7.93h16.508c2.279 0 4.25.934 5.913 2.803 1.299 1.55 1.948 3.35 1.948 5.4v9.195c0 1.39-.535 2.86-1.606 4.409-.912 1.025-1.63 1.663-2.153 1.914-.251.182-.65.399-1.197.65v.033c1.823.752 3.213 2.063 4.17 3.931.524 1.185.786 2.199.786 3.042v9.263c0 2.848-1.196 5.15-3.588 6.904-1.345.889-2.769 1.333-4.273 1.333h-16.509c-.045 0-.068-.023-.068-.068V5.192c0-.046.023-.069.068-.069zm1.161 1.23v22.525h14.937c3.076 0 5.264-1.413 6.562-4.238.297-.82.445-1.652.445-2.495v-8.956c0-2.643-1.253-4.682-3.76-6.118-.98-.478-1.971-.717-2.974-.717h-15.21zm0 23.755V52.77h15.074c2.529 0 4.523-1.14 5.981-3.418a6.954 6.954 0 0 0 .889-3.418V36.91c0-2.392-1.037-4.318-3.11-5.776a6.873 6.873 0 0 0-3.658-1.026h-15.176zm35.05-24.985h16.508c2.552 0 4.717 1.15 6.495 3.452.911 1.436 1.367 2.905 1.367 4.41v9.33c0 2.644-1.185 4.82-3.555 6.529-1.299.911-2.905 1.367-4.82 1.367h-6.972l15.313 23.72V54h-1.402c-.478-.66-5.309-8.146-14.492-22.456-.592-.889-.9-1.333-.923-1.333h-6.357v23.72c0 .046-.023.069-.069.069h-1.093c-.046 0-.069-.023-.069-.068V5.192c0-.046.023-.069.069-.069zm1.162 1.23v22.56h15.176c2.21 0 4.055-.97 5.537-2.906.82-1.208 1.23-2.438 1.23-3.692a.38.38 0 0 1 .171-.034v-.034c-.114 0-.17-.023-.17-.068v-8.58c0-2.141-.57-3.805-1.71-4.99-.592-.638-1.173-1.116-1.743-1.435-1.117-.547-2.188-.82-3.213-.82-.046 0-.068.01-.068.034l-.342-.034h-14.868zm35.049-1.23h24.302c.045 0 .068.023.068.068v1.094c0 .046-.023.069-.068.069h-23.14V28.33h10.938c.045.023.068.046.068.068v1.128c0 .023-.023.035-.068.035h-10.938V52.77h23.14c.045 0 .068.022.068.068v1.094c0 .045-.023.068-.068.068h-24.302c-.046 0-.068-.023-.068-.068V5.192c0-.046.022-.069.068-.069z"/><path d="M2.068 2.986h24.37c.023 0 .035.023.035.069v1.093c0 .046-.012.069-.035.069H3.23v22.046h23.208c.023.022.035.045.035.068v1.128c0 .046-.012.068-.035.068H3.23v24.405c0 .045-.022.068-.068.068H2.068C2.023 52 2 51.977 2 51.932V3.055c0-.046.023-.069.068-.069zm36.212.137H62.58c.046 0 .069.023.069.068v1.094c0 .046-.023.069-.069.069h-23.14V26.33H50.38c.046.023.069.046.069.068v1.128c0 .023-.023.035-.069.035H39.442V50.77h23.14c.045 0 .068.022.068.068v1.094c0 .045-.023.068-.069.068H38.28c-.046 0-.069-.023-.069-.068V3.192c0-.046.023-.069.069-.069zm36.211.103h1.094c.045 0 .068.022.068.068v47.441h23.14c.045 0 .068.023.068.069v1.093c0 .046-.023.069-.068.069H77.465c-.73 0-1.732.011-3.008.034l-.034-.068V3.294c0-.046.022-.068.068-.068zm36.211-.103h1.094c.046 0 .068.023.068.068v48.74c0 .046-.022.069-.068.069h-1.094c-.045 0-.068-.023-.068-.068V3.192c0-.046.023-.069.068-.069zm14.097 0h16.51c2.278 0 4.249.934 5.912 2.803 1.3 1.55 1.949 3.35 1.949 5.4v9.195c0 1.458-.582 2.973-1.744 4.545-1.709 2.028-3.862 3.042-6.46 3.042h-15.004v23.824c0 .045-.023.068-.069.068H124.8c-.045 0-.068-.023-.068-.068V3.192c0-.046.023-.069.068-.069zm1.163 1.23v22.525h15.244c.022 0 .034.011.034.034 1.094-.114 1.948-.296 2.563-.547 1.595-.729 2.746-1.823 3.452-3.281a6.91 6.91 0 0 0 .65-2.94V11.19c0-2.643-1.253-4.682-3.76-6.118-.98-.478-1.97-.717-2.974-.717h-15.21zm34.878-1.23h24.302c.045 0 .068.023.068.068v1.094c0 .046-.023.069-.068.069h-23.14V26.33h10.937c.046.023.069.046.069.068v1.128c0 .023-.023.035-.069.035h-10.937V50.77h23.14c.045 0 .068.022.068.068v1.094c0 .045-.023.068-.068.068H160.84c-.046 0-.069-.023-.069-.068V3.192c0-.046.023-.069.069-.069zm58.682-2.53h.069l12.578 26.66c.205.365 3.623 7.589 10.254 21.67.114.16.17.286.17.377h.035V3.328c.023-.045.045-.068.068-.068h1.196c.046 0 .069.023.069.068v51.543h-.069c-10.117-21.465-15.78-33.462-16.987-35.991l-6.118-12.954h-.034v46.177c0 .045-.023.068-.069.068h-1.093c-.046 0-.069-.023-.069-.068V.593zm43.526 2.496c.684.023 1.185.034 1.504.034h6.768c.387 0 .877-.011 1.47-.034 1.275.16 2.255.421 2.939.786 1.96 1.048 3.292 2.575 3.999 4.58.296.798.444 1.64.444 2.53v33.12c0 2.757-1.276 5.013-3.828 6.767C275 51.624 273.655 52 272.31 52h-8.75c-2.53 0-4.671-1.128-6.426-3.384-.934-1.458-1.401-2.962-1.401-4.512v-33.12c0-2.757 1.253-5.001 3.76-6.733 1.367-.752 2.551-1.128 3.554-1.128v-.034zm-6.084 7.964v32.983c0 1.823.66 3.407 1.982 4.751 1.322 1.322 2.929 1.983 4.82 1.983h8.374c1.846 0 3.44-.65 4.785-1.949 1.322-1.344 1.982-2.94 1.982-4.785V11.053c0-2.302-1.002-4.182-3.007-5.64-1.117-.73-2.37-1.094-3.76-1.094h-8.374c-1.869 0-3.464.65-4.785 1.949-1.345 1.344-2.017 2.939-2.017 4.785zm35.05-7.93h16.508c2.279 0 4.25.934 5.913 2.803 1.299 1.55 1.948 3.35 1.948 5.4v9.195c0 1.39-.535 2.86-1.606 4.409-.912 1.025-1.63 1.663-2.153 1.914-.251.182-.65.399-1.197.65v.033c1.823.752 3.213 2.063 4.17 3.931.524 1.185.786 2.199.786 3.042v9.263c0 2.848-1.196 5.15-3.588 6.904-1.345.889-2.769 1.333-4.273 1.333h-16.509c-.045 0-.068-.023-.068-.068V3.192c0-.046.023-.069.068-.069zm1.161 1.23v22.525h14.937c3.076 0 5.264-1.413 6.562-4.238.297-.82.445-1.652.445-2.495v-8.956c0-2.643-1.253-4.682-3.76-6.118-.98-.478-1.971-.717-2.974-.717h-15.21zm0 23.755V50.77h15.074c2.529 0 4.523-1.14 5.981-3.418a6.954 6.954 0 0 0 .889-3.418V34.91c0-2.392-1.037-4.318-3.11-5.776a6.873 6.873 0 0 0-3.658-1.026h-15.176zm35.05-24.985h16.508c2.552 0 4.717 1.15 6.495 3.452.911 1.436 1.367 2.905 1.367 4.41v9.33c0 2.644-1.185 4.82-3.555 6.529-1.299.911-2.905 1.367-4.82 1.367h-6.972l15.313 23.72V52h-1.402c-.478-.66-5.309-8.146-14.492-22.456-.592-.889-.9-1.333-.923-1.333h-6.357v23.72c0 .046-.023.069-.069.069h-1.093c-.046 0-.069-.023-.069-.068V3.192c0-.046.023-.069.069-.069zm1.162 1.23v22.56h15.176c2.21 0 4.055-.97 5.537-2.906.82-1.208 1.23-2.438 1.23-3.692a.38.38 0 0 1 .171-.034v-.034c-.114 0-.17-.023-.17-.068v-8.58c0-2.141-.57-3.805-1.71-4.99-.592-.638-1.173-1.116-1.743-1.435-1.117-.547-2.188-.82-3.213-.82-.046 0-.068.01-.068.034l-.342-.034h-14.868zm35.049-1.23h24.302c.045 0 .068.023.068.068v1.094c0 .046-.023.069-.068.069h-23.14V26.33h10.938c.045.023.068.046.068.068v1.128c0 .023-.023.035-.068.035h-10.938V50.77h23.14c.045 0 .068.022.068.068v1.094c0 .045-.023.068-.068.068h-24.302c-.046 0-.068-.023-.068-.068V3.192c0-.046.022-.069.068-.069z"/><path d="M3.068 4.986h24.37c.023 0 .035.023.035.069v1.093c0 .046-.012.069-.035.069H4.23v22.046h23.208c.023.022.035.045.035.068v1.128c0 .046-.012.068-.035.068H4.23v24.405c0 .045-.022.068-.068.068H3.068C3.023 54 3 53.977 3 53.932V5.055c0-.046.023-.069.068-.069zm36.212.137H63.58c.046 0 .069.023.069.068v1.094c0 .046-.023.069-.069.069h-23.14V28.33H51.38c.046.023.069.046.069.068v1.128c0 .023-.023.035-.069.035H40.442V52.77h23.14c.045 0 .068.022.068.068v1.094c0 .045-.023.068-.069.068H39.28c-.046 0-.069-.023-.069-.068V5.192c0-.046.023-.069.069-.069zm36.211.103h1.094c.045 0 .068.022.068.068v47.441h23.14c.045 0 .068.023.068.069v1.093c0 .046-.023.069-.068.069H78.465c-.73 0-1.732.011-3.008.034l-.034-.068V5.294c0-.046.022-.068.068-.068zm36.211-.103h1.094c.046 0 .068.023.068.068v48.74c0 .046-.022.069-.068.069h-1.094c-.045 0-.068-.023-.068-.068V5.192c0-.046.023-.069.068-.069zm14.097 0h16.51c2.278 0 4.249.934 5.912 2.803 1.3 1.55 1.949 3.35 1.949 5.4v9.195c0 1.458-.582 2.973-1.744 4.545-1.709 2.028-3.862 3.042-6.46 3.042h-15.004v23.824c0 .045-.023.068-.069.068H125.8c-.045 0-.068-.023-.068-.068V5.192c0-.046.023-.069.068-.069zm1.163 1.23v22.525h15.244c.022 0 .034.011.034.034 1.094-.114 1.948-.296 2.563-.547 1.595-.729 2.746-1.823 3.452-3.281a6.91 6.91 0 0 0 .65-2.94V13.19c0-2.643-1.253-4.682-3.76-6.118-.98-.478-1.97-.717-2.974-.717h-15.21zm34.878-1.23h24.302c.045 0 .068.023.068.068v1.094c0 .046-.023.069-.068.069h-23.14V28.33h10.937c.046.023.069.046.069.068v1.128c0 .023-.023.035-.069.035h-10.937V52.77h23.14c.045 0 .068.022.068.068v1.094c0 .045-.023.068-.068.068H161.84c-.046 0-.069-.023-.069-.068V5.192c0-.046.023-.069.069-.069zm58.682-2.53h.069l12.578 26.66c.205.365 3.623 7.589 10.254 21.67.114.16.17.286.17.377h.035V5.328c.023-.045.045-.068.068-.068h1.196c.046 0 .069.023.069.068v51.543h-.069c-10.117-21.465-15.78-33.462-16.987-35.991l-6.118-12.954h-.034v46.177c0 .045-.023.068-.069.068h-1.093c-.046 0-.069-.023-.069-.068V2.593zm43.526 2.496c.684.023 1.185.034 1.504.034h6.768c.387 0 .877-.011 1.47-.034 1.275.16 2.255.421 2.939.786 1.96 1.048 3.292 2.575 3.999 4.58.296.798.444 1.64.444 2.53v33.12c0 2.757-1.276 5.013-3.828 6.767C276 53.624 274.655 54 273.31 54h-8.75c-2.53 0-4.671-1.128-6.426-3.384-.934-1.458-1.401-2.962-1.401-4.512v-33.12c0-2.757 1.253-5.001 3.76-6.733 1.367-.752 2.551-1.128 3.554-1.128v-.034zm-6.084 7.964v32.983c0 1.823.66 3.407 1.982 4.751 1.322 1.322 2.929 1.983 4.82 1.983h8.374c1.846 0 3.44-.65 4.785-1.949 1.322-1.344 1.982-2.94 1.982-4.785V13.053c0-2.302-1.002-4.182-3.007-5.64-1.117-.73-2.37-1.094-3.76-1.094h-8.374c-1.869 0-3.464.65-4.785 1.949-1.345 1.344-2.017 2.939-2.017 4.785zm35.05-7.93h16.508c2.279 0 4.25.934 5.913 2.803 1.299 1.55 1.948 3.35 1.948 5.4v9.195c0 1.39-.535 2.86-1.606 4.409-.912 1.025-1.63 1.663-2.153 1.914-.251.182-.65.399-1.197.65v.033c1.823.752 3.213 2.063 4.17 3.931.524 1.185.786 2.199.786 3.042v9.263c0 2.848-1.196 5.15-3.588 6.904-1.345.889-2.769 1.333-4.273 1.333h-16.509c-.045 0-.068-.023-.068-.068V5.192c0-.046.023-.069.068-.069zm1.161 1.23v22.525h14.937c3.076 0 5.264-1.413 6.562-4.238.297-.82.445-1.652.445-2.495v-8.956c0-2.643-1.253-4.682-3.76-6.118-.98-.478-1.971-.717-2.974-.717h-15.21zm0 23.755V52.77h15.074c2.529 0 4.523-1.14 5.981-3.418a6.954 6.954 0 0 0 .889-3.418V36.91c0-2.392-1.037-4.318-3.11-5.776a6.873 6.873 0 0 0-3.658-1.026h-15.176zm35.05-24.985h16.508c2.552 0 4.717 1.15 6.495 3.452.911 1.436 1.367 2.905 1.367 4.41v9.33c0 2.644-1.185 4.82-3.555 6.529-1.299.911-2.905 1.367-4.82 1.367h-6.972l15.313 23.72V54h-1.402c-.478-.66-5.309-8.146-14.492-22.456-.592-.889-.9-1.333-.923-1.333h-6.357v23.72c0 .046-.023.069-.069.069h-1.093c-.046 0-.069-.023-.069-.068V5.192c0-.046.023-.069.069-.069zm1.162 1.23v22.56h15.176c2.21 0 4.055-.97 5.537-2.906.82-1.208 1.23-2.438 1.23-3.692a.38.38 0 0 1 .171-.034v-.034c-.114 0-.17-.023-.17-.068v-8.58c0-2.141-.57-3.805-1.71-4.99-.592-.638-1.173-1.116-1.743-1.435-1.117-.547-2.188-.82-3.213-.82-.046 0-.068.01-.068.034l-.342-.034h-14.868zm35.049-1.23h24.302c.045 0 .068.023.068.068v1.094c0 .046-.023.069-.068.069h-23.14V28.33h10.938c.045.023.068.046.068.068v1.128c0 .023-.023.035-.068.035h-10.938V52.77h23.14c.045 0 .068.022.068.068v1.094c0 .045-.023.068-.068.068h-24.302c-.046 0-.068-.023-.068-.068V5.192c0-.046.022-.069.068-.069z"/></g></symbol><symbol id="filter" viewBox="0 0 26 28"><title>filter icon</title><path d="M1 1h23.918l-9.09 12.356V27.19l-5.738-3.778V13.356z" fill-rule="nonzero" stroke="#D04058" fill="none"/></symbol><symbol id="github" viewBox="0 0 30 30"><title>Fill 4</title><path d="M15 0C6.717 0 0 6.67 0 14.898c0 6.582 4.298 12.166 10.258 14.136.75.138 1.052.392 1.052-.002 0-.355-.041-2.243-.047-3.488-4.174.901-5.054-1.758-5.054-1.758-.682-1.722-1.666-2.18-1.666-2.18-1.36-.924.103-.905.103-.905 1.506.105 2.3 1.535 2.3 1.535 1.337 2.277 3.508 1.619 4.364 1.238.135-.963.524-1.62.953-1.992-3.332-.377-6.834-1.654-6.834-7.362 0-1.627.586-2.956 1.545-4-.156-.374-.669-1.89.146-3.942 0 0 1.26-.4 4.126 1.527a14.47 14.47 0 0 1 3.754-.5c1.275.005 2.56.17 3.758.5 2.863-1.927 4.12-1.527 4.12-1.527.817 2.052.304 3.568.148 3.943.962 1.043 1.544 2.372 1.544 3.999 0 5.722-3.51 6.981-6.85 7.35.538.463 1.018 1.37 1.018 2.76v4.804c0 .397.252.144 1.013-.002C25.707 27.06 30 21.478 30 14.898 30 6.67 23.284 0 15 0l-3.526 32.653" fill="#4A4A4A" fill-rule="evenodd"/></symbol><symbol id="hello" viewBox="0 0 309 214"><title>HELLO</title><g fill="#D04058" fill-rule="evenodd"><path d="M86.305 103h-24.54V60.25h-36.35V103H.734V.625h24.68v40.64h36.35V.626h24.54zM166.227 59.617h-38.813v24.399h45.844V103h-70.524V.625h70.664V19.68h-45.984v21.586h38.813zM265.414 189.016h42.961V208h-67.64V105.625h24.68zM87.414 193.016h42.961V212h-67.64V109.625h24.68v83.39zm140.063-30.094c0 9.984-1.852 18.82-5.555 26.508-3.703 7.687-8.965 13.605-15.785 17.754-6.82 4.148-14.59 6.222-23.309 6.222-8.719 0-16.453-2.004-23.203-6.011-6.75-4.008-12.012-9.739-15.785-17.192-3.774-7.453-5.754-16.008-5.942-25.664v-5.766c0-10.03 1.84-18.878 5.52-26.543 3.68-7.664 8.953-13.582 15.82-17.753 6.868-4.172 14.684-6.258 23.45-6.258 8.671 0 16.406 2.062 23.203 6.187 6.797 4.125 12.082 9.996 15.855 17.614 3.774 7.617 5.684 16.347 5.73 26.19v4.712zm-25.102-4.29c0-10.171-1.7-17.894-5.098-23.167-3.398-5.274-8.261-7.91-14.59-7.91-12.375 0-18.914 9.28-19.617 27.843l-.07 7.524c0 10.031 1.664 17.742 4.992 23.133 3.328 5.39 8.274 8.086 14.836 8.086 6.235 0 11.04-2.649 14.414-7.946 3.375-5.297 5.086-12.914 5.133-22.851v-4.711zM24.305 152.008c3.75 0 6.867 1.113 9.351 3.34 2.485 2.226 3.727 5.074 3.727 8.543 0 3.468-1.242 6.316-3.727 8.543-2.484 2.226-5.601 3.34-9.351 3.34-3.797 0-6.926-1.126-9.387-3.376-2.461-2.25-3.691-5.085-3.691-8.507 0-3.422 1.23-6.258 3.691-8.508 2.46-2.25 5.59-3.375 9.387-3.375z"/></g></symbol><symbol id="instagram" viewBox="0 0 30 30"><title>Shape</title><path d="M15.001 0c-4.073 0-4.585.018-6.185.09C7.22.165 6.13.418 5.176.789a7.345 7.345 0 0 0-2.658 1.73 7.363 7.363 0 0 0-1.73 2.656C.414 6.128.161 7.218.09 8.814.02 10.415 0 10.927 0 15s.018 4.583.09 6.183c.074 1.597.327 2.687.698 3.641a7.35 7.35 0 0 0 1.73 2.657 7.345 7.345 0 0 0 2.656 1.731c.954.371 2.045.624 3.641.697 1.6.073 2.111.091 6.185.091s4.583-.018 6.183-.09c1.597-.074 2.688-.327 3.643-.698a7.34 7.34 0 0 0 2.655-1.73 7.363 7.363 0 0 0 1.731-2.658c.37-.954.622-2.044.697-3.64.072-1.6.091-2.11.091-6.184s-.019-4.585-.09-6.185c-.076-1.597-.329-2.687-.698-3.64a7.362 7.362 0 0 0-1.73-2.658 7.331 7.331 0 0 0-2.657-1.73c-.956-.37-2.047-.623-3.644-.696C19.581.018 19.071 0 14.997 0H15zm-1.345 2.703H15c4.005 0 4.48.014 6.062.086 1.462.067 2.256.312 2.785.517.7.272 1.199.597 1.724 1.122.525.525.85 1.025 1.122 1.725.205.528.45 1.322.517 2.784.071 1.581.087 2.056.087 6.06 0 4.003-.016 4.478-.087 6.059-.067 1.462-.312 2.256-.517 2.784a4.638 4.638 0 0 1-1.122 1.723 4.639 4.639 0 0 1-1.724 1.122c-.528.207-1.323.45-2.785.517-1.582.072-2.057.088-6.062.088-4.005 0-4.48-.016-6.06-.088-1.463-.067-2.257-.312-2.786-.517-.7-.272-1.2-.597-1.725-1.122a4.65 4.65 0 0 1-1.123-1.724c-.205-.528-.45-1.322-.516-2.784-.072-1.582-.087-2.057-.087-6.062 0-4.006.015-4.478.087-6.06.067-1.462.31-2.256.516-2.785.272-.7.598-1.2 1.123-1.725a4.655 4.655 0 0 1 1.725-1.122c.529-.206 1.323-.45 2.785-.517 1.384-.063 1.92-.081 4.716-.085v.004zm9.352 2.49a1.8 1.8 0 1 0 0 3.601 1.8 1.8 0 0 0 0-3.6zm-8.007 2.104a7.703 7.703 0 1 0 .002 15.407A7.703 7.703 0 0 0 15 7.297zm0 2.703a5 5 0 1 1 0 10 5 5 0 0 1 0-10z" fill="#4A4A4A" fill-rule="evenodd"/></symbol><symbol id="logo" viewBox="-32 47 84 57"><g fill="#D04059"><path d="M3 87c0 10.1-8.1 15.7-16.7 15.7h-.1V93h.1c3.6 0 6.7-2.4 6.7-6 0-4-3.7-6.4-6.7-6.5-.5 0-4.1 0-8-1.8-5.6-2.6-8.8-7.4-8.8-13.6 0-10.1 8.2-16.3 16.8-16.3 9.2 0 16.4 6.2 16.5 15.4.1.2-.3.5-.7.5h-8.4c-.4 0-.7-.3-.7-.5-.1-3.8-3.1-5.7-6.6-5.7-3.7 0-6.7 2.2-6.7 6.5 0 3.9 3.3 5.9 6.7 5.9.3 0 4.1 0 8 1.8C-.1 75.4 3 80.7 3 87zM50.1 49.4v52.8c0 .3-.3.6-.7.6h-8.9c-.1 0-.5-.1-.6-.2L15 67v22.8H4.7V49.4c0-.3.3-.6.7-.6h9c.1 0 .5.1.6.2l24.9 35.6V49.4c0-.3.3-.6.8-.6h8.7c.5-.1.7.3.7.6z"/></g></symbol><symbol id="menu-icon" viewBox="0 0 66 36"><g fill="none" fill-rule="evenodd"><path d="M19.5 26.5h22M1.5 16.5h40M15.5 7.5h26" stroke="#4A4A4A" stroke-width="3" stroke-linecap="square"/><text transform="rotate(-90 57.5 17.5)" font-family="Roboto-Medium, Roboto" font-size="13" font-weight="400" fill="#4A4A4A"><tspan x="39" y="25">MENU</tspan></text></g></symbol></svg>