<?xml version="1.0" encoding="UTF-8"?><!DOCTYPE svg PUBLIC "-//W3C//DTD SVG 1.1//EN" "http://www.w3.org/Graphics/SVG/1.1/DTD/svg11.dtd"><svg xmlns="http://www.w3.org/2000/svg"><symbol id="filter" viewBox="0 0 26 28"><title>filter icon</title><path d="M1 1h23.918l-9.09 12.356V27.19l-5.738-3.778V13.356z" fill-rule="nonzero" stroke="#D04058" fill="none"/></symbol><symbol id="github" viewBox="0 0 30 30"><title>Fill 4</title><path d="M15 0C6.717 0 0 6.67 0 14.898c0 6.582 4.298 12.166 10.258 14.136.75.138 1.052.392 1.052-.002 0-.355-.041-2.243-.047-3.488-4.174.901-5.054-1.758-5.054-1.758-.682-1.722-1.666-2.18-1.666-2.18-1.36-.924.103-.905.103-.905 1.506.105 2.3 1.535 2.3 1.535 1.337 2.277 3.508 1.619 4.364 1.238.135-.963.524-1.62.953-1.992-3.332-.377-6.834-1.654-6.834-7.362 0-1.627.586-2.956 1.545-4-.156-.374-.669-1.89.146-3.942 0 0 1.26-.4 4.126 1.527a14.47 14.47 0 0 1 3.754-.5c1.275.005 2.56.17 3.758.5 2.863-1.927 4.12-1.527 4.12-1.527.817 2.052.304 3.568.148 3.943.962 1.043 1.544 2.372 1.544 3.999 0 5.722-3.51 6.981-6.85 7.35.538.463 1.018 1.37 1.018 2.76v4.804c0 .397.252.144 1.013-.002C25.707 27.06 30 21.478 30 14.898 30 6.67 23.284 0 15 0l-3.526 32.653" fill="#4A4A4A" fill-rule="evenodd"/></symbol><symbol id="instagram" viewBox="0 0 30 30"><title>Shape</title><path d="M15.001 0c-4.073 0-4.585.018-6.185.09C7.22.165 6.13.418 5.176.789a7.345 7.345 0 0 0-2.658 1.73 7.363 7.363 0 0 0-1.73 2.656C.414 6.128.161 7.218.09 8.814.02 10.415 0 10.927 0 15s.018 4.583.09 6.183c.074 1.597.327 2.687.698 3.641a7.35 7.35 0 0 0 1.73 2.657 7.345 7.345 0 0 0 2.656 1.731c.954.371 2.045.624 3.641.697 1.6.073 2.111.091 6.185.091s4.583-.018 6.183-.09c1.597-.074 2.688-.327 3.643-.698a7.34 7.34 0 0 0 2.655-1.73 7.363 7.363 0 0 0 1.731-2.658c.37-.954.622-2.044.697-3.64.072-1.6.091-2.11.091-6.184s-.019-4.585-.09-6.185c-.076-1.597-.329-2.687-.698-3.64a7.362 7.362 0 0 0-1.73-2.658 7.331 7.331 0 0 0-2.657-1.73c-.956-.37-2.047-.623-3.644-.696C19.581.018 19.071 0 14.997 0H15zm-1.345 2.703H15c4.005 0 4.48.014 6.062.086 1.462.067 2.256.312 2.785.517.7.272 1.199.597 1.724 1.122.525.525.85 1.025 1.122 1.725.205.528.45 1.322.517 2.784.071 1.581.087 2.056.087 6.06 0 4.003-.016 4.478-.087 6.059-.067 1.462-.312 2.256-.517 2.784a4.638 4.638 0 0 1-1.122 1.723 4.639 4.639 0 0 1-1.724 1.122c-.528.207-1.323.45-2.785.517-1.582.072-2.057.088-6.062.088-4.005 0-4.48-.016-6.06-.088-1.463-.067-2.257-.312-2.786-.517-.7-.272-1.2-.597-1.725-1.122a4.65 4.65 0 0 1-1.123-1.724c-.205-.528-.45-1.322-.516-2.784-.072-1.582-.087-2.057-.087-6.062 0-4.006.015-4.478.087-6.06.067-1.462.31-2.256.516-2.785.272-.7.598-1.2 1.123-1.725a4.655 4.655 0 0 1 1.725-1.122c.529-.206 1.323-.45 2.785-.517 1.384-.063 1.92-.081 4.716-.085v.004zm9.352 2.49a1.8 1.8 0 1 0 0 3.601 1.8 1.8 0 0 0 0-3.6zm-8.007 2.104a7.703 7.703 0 1 0 .002 15.407A7.703 7.703 0 0 0 15 7.297zm0 2.703a5 5 0 1 1 0 10 5 5 0 0 1 0-10z" fill="#4A4A4A" fill-rule="evenodd"/></symbol><symbol id="logo" viewBox="-32 47 84 57"><g fill="#D04059"><path d="M3 87c0 10.1-8.1 15.7-16.7 15.7h-.1V93h.1c3.6 0 6.7-2.4 6.7-6 0-4-3.7-6.4-6.7-6.5-.5 0-4.1 0-8-1.8-5.6-2.6-8.8-7.4-8.8-13.6 0-10.1 8.2-16.3 16.8-16.3 9.2 0 16.4 6.2 16.5 15.4.1.2-.3.5-.7.5h-8.4c-.4 0-.7-.3-.7-.5-.1-3.8-3.1-5.7-6.6-5.7-3.7 0-6.7 2.2-6.7 6.5 0 3.9 3.3 5.9 6.7 5.9.3 0 4.1 0 8 1.8C-.1 75.4 3 80.7 3 87zM50.1 49.4v52.8c0 .3-.3.6-.7.6h-8.9c-.1 0-.5-.1-.6-.2L15 67v22.8H4.7V49.4c0-.3.3-.6.7-.6h9c.1 0 .5.1.6.2l24.9 35.6V49.4c0-.3.3-.6.8-.6h8.7c.5-.1.7.3.7.6z"/></g></symbol></svg>